<svg width="70" height="70" viewBox="0 0 70 70" fill="none" xmlns="http://www.w3.org/2000/svg">
<circle cx="35" cy="35" r="35" fill="#E4AF00" fill-opacity="0.1"/>
<path opacity="0.2" d="M52.3449 51.614C40.2368 51.614 31.9221 56.5 26.0877 56.5C20.2534 56.5 8 53.8872 8 32.9784C8 12.0696 24.4843 9 30.9015 9C60.952 9 73.7883 51.614 52.3449 51.614Z" fill="#E4AF00"/>
<path d="M27.4418 18.2674H28.1969V12.9062H27.4418V18.2674Z" fill="#3F3D56"/>
<path d="M13.4725 26.2715H20.0419V23.7041H13.4725V26.2715Z" fill="#3F3D56"/>
<path d="M14.0765 28.8389L46.4704 28.8389V25.9695L14.0765 25.9695V28.8389Z" fill="#3F3D56"/>
<path d="M19.3999 27.4041H27.1775V17.6255H21.3631L19.3999 22.5574V27.4041Z" fill="#E2E2E2"/>
<path d="M22.647 21.5521H25.9694V18.2296H22.647V21.5521Z" fill="white"/>
<path d="M20.1551 21.5898H22.2695V18.2675H21.3632L20.1551 21.5898Z" fill="white"/>
<path d="M25.0633 24.8746H25.8184V23.4399H25.0633V24.8746Z" fill="#3F3D56"/>
<path d="M21.6276 21.8163H21.5898C21.3996 21.8163 21.2171 21.7408 21.0826 21.6062C20.948 21.4717 20.8725 21.2892 20.8725 21.099C20.8725 20.9087 20.948 20.7263 21.0826 20.5918C21.2171 20.4572 21.3996 20.3816 21.5898 20.3816H21.6276V21.8163Z" fill="#3F3D56"/>
<path d="M49.7174 27.4041H49.6796C49.4894 27.4041 49.3069 27.3285 49.1724 27.194C49.0379 27.0595 48.9623 26.877 48.9623 26.6868C48.9623 26.4965 49.0379 26.314 49.1724 26.1795C49.3069 26.045 49.4894 25.9694 49.6796 25.9694H49.7174V27.4041Z" fill="#3F3D56"/>
<path d="M16.3796 25.9586C15.8181 25.9658 15.2653 26.0995 14.7626 26.3498C14.2598 26.6 13.82 26.9604 13.4757 27.4041H12L13.4347 23.4076L20.1174 22.0897L19.9286 27.4041H19.2835C18.9392 26.9604 18.4994 26.6 17.9966 26.3498C17.4939 26.0995 16.9412 25.9658 16.3796 25.9586Z" fill="#E2E2E2"/>
<path d="M16.304 31.6327C18.1181 31.6327 19.5887 30.1621 19.5887 28.348C19.5887 26.5339 18.1181 25.0633 16.304 25.0633C14.4899 25.0633 13.0193 26.5339 13.0193 28.348C13.0193 30.1621 14.4899 31.6327 16.304 31.6327Z" fill="#3F3D56"/>
<path d="M16.3041 30.0768C17.2588 30.0768 18.0329 29.3028 18.0329 28.348C18.0329 27.3932 17.2588 26.6192 16.3041 26.6192C15.3493 26.6192 14.5753 27.3932 14.5753 28.348C14.5753 29.3028 15.3493 30.0768 16.3041 30.0768Z" fill="#E2E2E2"/>
<path d="M45.9796 31.5949C47.5643 31.5949 48.849 30.3103 48.849 28.7255C48.849 27.1408 47.5643 25.8561 45.9796 25.8561C44.3949 25.8561 43.1102 27.1408 43.1102 28.7255C43.1102 30.3103 44.3949 31.5949 45.9796 31.5949Z" fill="#3F3D56"/>
<path d="M45.9795 30.2357C46.8136 30.2357 47.4897 29.5596 47.4897 28.7255C47.4897 27.8915 46.8136 27.2153 45.9795 27.2153C45.1455 27.2153 44.4693 27.8915 44.4693 28.7255C44.4693 29.5596 45.1455 30.2357 45.9795 30.2357Z" fill="#E2E2E2"/>
<path d="M26.9511 27.7062H28.5368V16.2663H26.9511V27.7062Z" fill="#3F3D56"/>
<path d="M26.9511 26.3093L49.7552 26.3093V25.6297L26.9511 25.6297V26.3093Z" fill="#3F3D56"/>
<path d="M21.1745 22.0429H21.9296V21.7409H21.1745V22.0429Z" fill="#3F3D56"/>
<path d="M13.4485 23.4659L13.4839 23.4793C13.6618 23.5466 13.8057 23.6818 13.884 23.8553C13.9622 24.0287 13.9684 24.2261 13.9011 24.404C13.8337 24.582 13.6985 24.7259 13.5251 24.8041C13.3517 24.8824 13.1543 24.8885 12.9763 24.8212L12.941 24.8079L13.4485 23.4659Z" fill="#3F3D56"/>
<path d="M27.8194 14.1143C28.4033 14.1143 28.8766 13.641 28.8766 13.0571C28.8766 12.4733 28.4033 12 27.8194 12C27.2356 12 26.7623 12.4733 26.7623 13.0571C26.7623 13.641 27.2356 14.1143 27.8194 14.1143Z" fill="#3F3D56"/>
<path d="M52.7159 13.9795L29.4088 13.9795V13.158L52.7159 13.158V13.9795Z" fill="#E4AF00" stroke="black" stroke-width="0.1"/>
<path d="M52.7159 14.9011L29.4088 14.9011V14.0796L52.7159 14.0796V14.9011Z" fill="#E4AF00" stroke="black" stroke-width="0.1"/>
<path d="M52.7159 15.8226L29.4088 15.8226V15.0011L52.7159 15.0011V15.8226Z" fill="#E4AF00" stroke="black" stroke-width="0.1"/>
<path d="M52.7159 16.7442L29.4088 16.7442V15.9227L52.7159 15.9227V16.7442Z" fill="#E4AF00" stroke="black" stroke-width="0.1"/>
<path d="M52.7159 17.6657L29.4088 17.6657V16.8442L52.7159 16.8442V17.6657Z" fill="#E4AF00" stroke="black" stroke-width="0.1"/>
<path d="M52.7159 18.5873L29.4088 18.5873V17.7657L52.7159 17.7657V18.5873Z" fill="#E4AF00" stroke="black" stroke-width="0.1"/>
<path d="M52.7159 19.5088L29.4088 19.5088V18.6872L52.7159 18.6872V19.5088Z" fill="#E4AF00" stroke="black" stroke-width="0.1"/>
<path d="M52.7159 20.4303L29.4088 20.4303V19.6087L52.7159 19.6087V20.4303Z" fill="#E4AF00" stroke="black" stroke-width="0.1"/>
<path d="M52.7159 21.3519L29.4088 21.3519V20.5303L52.7159 20.5303V21.3519Z" fill="#E4AF00" stroke="black" stroke-width="0.1"/>
<path d="M52.7159 22.2734L29.4088 22.2734V21.4519L52.7159 21.4519V22.2734Z" fill="#E4AF00" stroke="black" stroke-width="0.1"/>
<path d="M52.7159 23.1949L29.4088 23.1949V22.3734L52.7159 22.3734V23.1949Z" fill="#E4AF00" stroke="black" stroke-width="0.1"/>
<path d="M52.7159 24.1165L29.4088 24.1165V23.295L52.7159 23.295V24.1165Z" fill="#E4AF00" stroke="black" stroke-width="0.1"/>
<path d="M52.7159 25.038L29.4088 25.038V24.2165L52.7159 24.2165V25.038Z" fill="#E4AF00" stroke="black" stroke-width="0.1"/>
<path d="M52.7159 25.9595L29.4088 25.9595V25.138L52.7159 25.138V25.9595Z" fill="#E4AF00" stroke="black" stroke-width="0.1"/>
<path d="M30.0222 28.7729H30.7773V23.4117H30.0222V28.7729Z" fill="#3F3D56"/>
<path d="M16.0528 36.777H22.6222V34.2097H16.0528V36.777Z" fill="#3F3D56"/>
<path d="M16.6568 39.3444L49.0508 39.3444V36.475L16.6568 36.475V39.3444Z" fill="#3F3D56"/>
<path d="M21.9802 37.9097H29.7578V28.131H23.9435L21.9802 33.0629V37.9097Z" fill="#E2E2E2"/>
<path d="M25.2273 32.0576H28.5498V28.7352H25.2273V32.0576Z" fill="white"/>
<path d="M22.7354 32.0953H24.8498V28.773H23.9436L22.7354 32.0953Z" fill="white"/>
<path d="M27.6437 35.3801H28.3988V33.9454H27.6437V35.3801Z" fill="#3F3D56"/>
<path d="M24.2079 32.3219H24.1702C23.9799 32.3219 23.7974 32.2463 23.6629 32.1118C23.5284 31.9773 23.4528 31.7948 23.4528 31.6045C23.4528 31.4143 23.5284 31.2318 23.6629 31.0973C23.7974 30.9628 23.9799 30.8872 24.1702 30.8872H24.2079V32.3219Z" fill="#3F3D56"/>
<path d="M52.2978 37.9097H52.26C52.0697 37.9097 51.8873 37.8341 51.7528 37.6996C51.6182 37.565 51.5427 37.3826 51.5427 37.1923C51.5427 37.0021 51.6182 36.8196 51.7528 36.6851C51.8873 36.5505 52.0697 36.475 52.26 36.475H52.2978V37.9097Z" fill="#3F3D56"/>
<path d="M18.96 36.4641C18.3984 36.4713 17.8457 36.605 17.3429 36.8553C16.8402 37.1056 16.4003 37.466 16.0561 37.9097H14.5804L16.0151 33.9132L22.6977 32.5952L22.5089 37.9097H21.8638C21.5196 37.466 21.0797 37.1056 20.577 36.8553C20.0742 36.605 19.5215 36.4713 18.96 36.4641Z" fill="#E2E2E2"/>
<path d="M18.8843 42.1382C20.6984 42.1382 22.169 40.6676 22.169 38.8535C22.169 37.0395 20.6984 35.5688 18.8843 35.5688C17.0702 35.5688 15.5996 37.0395 15.5996 38.8535C15.5996 40.6676 17.0702 42.1382 18.8843 42.1382Z" fill="#3F3D56"/>
<path d="M18.8844 40.5823C19.8392 40.5823 20.6132 39.8083 20.6132 38.8535C20.6132 37.8988 19.8392 37.1248 18.8844 37.1248C17.9296 37.1248 17.1556 37.8988 17.1556 38.8535C17.1556 39.8083 17.9296 40.5823 18.8844 40.5823Z" fill="#E2E2E2"/>
<path d="M48.56 42.1005C50.1447 42.1005 51.4294 40.8158 51.4294 39.2311C51.4294 37.6464 50.1447 36.3617 48.56 36.3617C46.9753 36.3617 45.6906 37.6464 45.6906 39.2311C45.6906 40.8158 46.9753 42.1005 48.56 42.1005Z" fill="#3F3D56"/>
<path d="M48.5599 40.7413C49.3939 40.7413 50.0701 40.0652 50.0701 39.2311C50.0701 38.397 49.3939 37.7209 48.5599 37.7209C47.7258 37.7209 47.0497 38.397 47.0497 39.2311C47.0497 40.0652 47.7258 40.7413 48.5599 40.7413Z" fill="#E2E2E2"/>
<path d="M29.5314 38.2117H31.1171V26.7719H29.5314V38.2117Z" fill="#3F3D56"/>
<path d="M29.5314 36.8148H52.3356V36.1352H29.5314V36.8148Z" fill="#3F3D56"/>
<path d="M23.7548 32.5485H24.5099V32.2464H23.7548V32.5485Z" fill="#3F3D56"/>
<path d="M16.0289 33.9715L16.0642 33.9849C16.2422 34.0522 16.3861 34.1874 16.4643 34.3608C16.5426 34.5342 16.5487 34.7316 16.4814 34.9096C16.4141 35.0875 16.2789 35.2315 16.1054 35.3097C15.932 35.3879 15.7346 35.3941 15.5567 35.3268L15.5214 35.3134L16.0289 33.9715Z" fill="#3F3D56"/>
<path d="M30.3998 24.6198C30.9836 24.6198 31.4569 24.1465 31.4569 23.5627C31.4569 22.9789 30.9836 22.5056 30.3998 22.5056C29.8159 22.5056 29.3426 22.9789 29.3426 23.5627C29.3426 24.1465 29.8159 24.6198 30.3998 24.6198Z" fill="#3F3D56"/>
<path d="M55.2962 24.4851L31.9891 24.4851V23.6636L55.2962 23.6636V24.4851Z" fill="#E4AF00" stroke="black" stroke-width="0.1"/>
<path d="M55.2962 25.4067L31.9891 25.4067V24.5851L55.2962 24.5851V25.4067Z" fill="#E4AF00" stroke="black" stroke-width="0.1"/>
<path d="M55.2962 26.3282L31.9891 26.3282V25.5066L55.2962 25.5066V26.3282Z" fill="#E4AF00" stroke="black" stroke-width="0.1"/>
<path d="M55.2962 27.2497L31.9891 27.2497V26.4282L55.2962 26.4282V27.2497Z" fill="#E4AF00" stroke="black" stroke-width="0.1"/>
<path d="M55.2962 28.1713L31.9891 28.1713V27.3497L55.2962 27.3497V28.1713Z" fill="#E4AF00" stroke="black" stroke-width="0.1"/>
<path d="M55.2962 29.0928L31.9891 29.0928V28.2713L55.2962 28.2713V29.0928Z" fill="#E4AF00" stroke="black" stroke-width="0.1"/>
<path d="M55.2962 30.0143L31.9891 30.0143V29.1928L55.2962 29.1928V30.0143Z" fill="#E4AF00" stroke="black" stroke-width="0.1"/>
<path d="M55.2962 30.9359L31.9891 30.9359V30.1144L55.2962 30.1144V30.9359Z" fill="#E4AF00" stroke="black" stroke-width="0.1"/>
<path d="M55.2962 31.8574L31.9891 31.8574V31.0359L55.2962 31.0359V31.8574Z" fill="#E4AF00" stroke="black" stroke-width="0.1"/>
<path d="M55.2962 32.7789H31.9891V31.9574L55.2962 31.9574V32.7789Z" fill="#E4AF00" stroke="black" stroke-width="0.1"/>
<path d="M55.2962 33.7005H31.9891V32.8789H55.2962V33.7005Z" fill="#E4AF00" stroke="black" stroke-width="0.1"/>
<path d="M55.2962 34.622H31.9891V33.8005H55.2962V34.622Z" fill="#E4AF00" stroke="black" stroke-width="0.1"/>
<path d="M55.2962 35.5436H31.9891V34.722H55.2962V35.5436Z" fill="#E4AF00" stroke="black" stroke-width="0.1"/>
<path d="M55.2962 36.4651H31.9891V35.6435H55.2962V36.4651Z" fill="#E4AF00" stroke="black" stroke-width="0.1"/>
<path d="M34.9985 39.2784H35.7536V33.9172H34.9985V39.2784Z" fill="#3F3D56"/>
<path d="M21.0291 47.2826H27.5985V44.7152H21.0291V47.2826Z" fill="#3F3D56"/>
<path d="M21.6331 49.8499L54.0271 49.8499V46.9805L21.6331 46.9805V49.8499Z" fill="#3F3D56"/>
<path d="M26.9565 48.4152H34.7341V38.6366H28.9198L26.9565 43.5685V48.4152Z" fill="#E2E2E2"/>
<path d="M30.2036 42.5632H33.5261V39.2407H30.2036V42.5632Z" fill="white"/>
<path d="M27.7117 42.6009H29.8261V39.2786H28.9199L27.7117 42.6009Z" fill="white"/>
<path d="M32.62 45.8857H33.3751V44.451H32.62V45.8857Z" fill="#3F3D56"/>
<path d="M29.1842 42.8275H29.1465C28.9562 42.8275 28.7738 42.7519 28.6392 42.6174C28.5047 42.4828 28.4291 42.3004 28.4291 42.1101C28.4291 41.9199 28.5047 41.7374 28.6392 41.6029C28.7738 41.4684 28.9562 41.3928 29.1465 41.3928H29.1842V42.8275Z" fill="#3F3D56"/>
<path d="M57.2741 48.4152H57.2363C57.0461 48.4152 56.8636 48.3397 56.7291 48.2051C56.5946 48.0706 56.519 47.8882 56.519 47.6979C56.519 47.5076 56.5946 47.3252 56.7291 47.1907C56.8636 47.0561 57.0461 46.9805 57.2363 46.9805H57.2741V48.4152Z" fill="#3F3D56"/>
<path d="M23.9363 46.9697C23.3747 46.9769 22.822 47.1106 22.3193 47.3609C21.8165 47.6112 21.3767 47.9715 21.0324 48.4153H19.5567L20.9914 44.4188L27.674 43.1008L27.4853 48.4153H26.8402C26.4959 47.9715 26.056 47.6112 25.5533 47.3609C25.0505 47.1106 24.4978 46.9769 23.9363 46.9697Z" fill="#E2E2E2"/>
<path d="M23.8606 52.6438C25.6747 52.6438 27.1453 51.1732 27.1453 49.3591C27.1453 47.545 25.6747 46.0744 23.8606 46.0744C22.0466 46.0744 20.5759 47.545 20.5759 49.3591C20.5759 51.1732 22.0466 52.6438 23.8606 52.6438Z" fill="#3F3D56"/>
<path d="M23.8607 51.0879C24.8155 51.0879 25.5895 50.3139 25.5895 49.3591C25.5895 48.4043 24.8155 47.6303 23.8607 47.6303C22.9059 47.6303 22.1319 48.4043 22.1319 49.3591C22.1319 50.3139 22.9059 51.0879 23.8607 51.0879Z" fill="#E2E2E2"/>
<path d="M53.5363 52.6061C55.121 52.6061 56.4057 51.3214 56.4057 49.7367C56.4057 48.1519 55.121 46.8673 53.5363 46.8673C51.9516 46.8673 50.6669 48.1519 50.6669 49.7367C50.6669 51.3214 51.9516 52.6061 53.5363 52.6061Z" fill="#3F3D56"/>
<path d="M53.5362 51.2469C54.3702 51.2469 55.0464 50.5707 55.0464 49.7366C55.0464 48.9026 54.3702 48.2264 53.5362 48.2264C52.7021 48.2264 52.026 48.9026 52.026 49.7366C52.026 50.5707 52.7021 51.2469 53.5362 51.2469Z" fill="#E2E2E2"/>
<path d="M34.5077 48.7173H36.0934V37.2775H34.5077V48.7173Z" fill="#3F3D56"/>
<path d="M34.5077 47.3203H57.3119V46.6407H34.5077V47.3203Z" fill="#3F3D56"/>
<path d="M28.7312 43.054H29.4863V42.7519H28.7312V43.054Z" fill="#3F3D56"/>
<path d="M21.0052 44.477L21.0405 44.4904C21.2185 44.5577 21.3624 44.6929 21.4406 44.8663C21.5189 45.0398 21.525 45.2372 21.4577 45.4151C21.3904 45.5931 21.2552 45.737 21.0817 45.8152C20.9083 45.8935 20.7109 45.8996 20.533 45.8323L20.4977 45.8189L21.0052 44.477Z" fill="#3F3D56"/>
<path d="M35.3761 35.1254C35.9599 35.1254 36.4332 34.6521 36.4332 34.0683C36.4332 33.4844 35.9599 33.0111 35.3761 33.0111C34.7922 33.0111 34.3189 33.4844 34.3189 34.0683C34.3189 34.6521 34.7922 35.1254 35.3761 35.1254Z" fill="#3F3D56"/>
<path d="M60.2725 34.9906H36.9654V34.1691H60.2725V34.9906Z" fill="#E4AF00" stroke="black" stroke-width="0.1"/>
<path d="M60.2725 35.9122H36.9654V35.0907H60.2725V35.9122Z" fill="#E4AF00" stroke="black" stroke-width="0.1"/>
<path d="M60.2725 36.8337H36.9654V36.0122H60.2725V36.8337Z" fill="#E4AF00" stroke="black" stroke-width="0.1"/>
<path d="M60.2725 37.7553H36.9654V36.9338H60.2725V37.7553Z" fill="#E4AF00" stroke="black" stroke-width="0.1"/>
<path d="M60.2725 38.6768H36.9654V37.8553H60.2725V38.6768Z" fill="#E4AF00" stroke="black" stroke-width="0.1"/>
<path d="M60.2725 39.5984H36.9654V38.7768H60.2725V39.5984Z" fill="#E4AF00" stroke="black" stroke-width="0.1"/>
<path d="M60.2725 40.5199H36.9654V39.6983H60.2725V40.5199Z" fill="#E4AF00" stroke="black" stroke-width="0.1"/>
<path d="M60.2725 41.4414H36.9654V40.6199H60.2725V41.4414Z" fill="#E4AF00" stroke="black" stroke-width="0.1"/>
<path d="M60.2725 42.363H36.9654V41.5414H60.2725V42.363Z" fill="#E4AF00" stroke="black" stroke-width="0.1"/>
<path d="M60.2725 43.2845H36.9654V42.463H60.2725V43.2845Z" fill="#E4AF00" stroke="black" stroke-width="0.1"/>
<path d="M60.2725 44.206H36.9654V43.3845H60.2725V44.206Z" fill="#E4AF00" stroke="black" stroke-width="0.1"/>
<path d="M60.2725 45.1276H36.9654V44.306H60.2725V45.1276Z" fill="#E4AF00" stroke="black" stroke-width="0.1"/>
<path d="M60.2725 46.0491H36.9654V45.2276H60.2725V46.0491Z" fill="#E4AF00" stroke="black" stroke-width="0.1"/>
<path d="M60.2725 46.9707H36.9654V46.1491H60.2725V46.9707Z" fill="#E4AF00" stroke="black" stroke-width="0.1"/>
</svg>
