<svg width="70" height="70" viewBox="0 0 70 70" fill="none" xmlns="http://www.w3.org/2000/svg">
<circle cx="35" cy="35" r="35" fill="#E4AF00" fill-opacity="0.1"/>
<path opacity="0.2" d="M52.3449 53.614C40.2368 53.614 31.9221 58.5 26.0877 58.5C20.2534 58.5 8 55.8872 8 34.9784C8 14.0696 24.4843 11 30.9015 11C60.952 11 73.7883 53.614 52.3449 53.614Z" fill="#E4AF00"/>
<path d="M41.3729 37.4198L24.082 41.8724C23.4954 42.0227 22.8732 41.9343 22.3518 41.6264C21.8305 41.3186 21.4525 40.8165 21.3008 40.2303L16.0716 19.9236C15.9213 19.337 16.0097 18.7148 16.3176 18.1934C16.6254 17.6721 17.1275 17.2941 17.7137 17.1424L33.8001 13L37.9174 14.8432L43.015 34.6387C43.1653 35.2252 43.0768 35.8474 42.769 36.3688C42.4611 36.8902 41.959 37.2682 41.3729 37.4198Z" fill="#F2F2F2"/>
<path d="M17.8774 17.779C17.46 17.887 17.1024 18.1562 16.8832 18.5275C16.664 18.8988 16.601 19.3419 16.708 19.7596L21.9372 40.0663C22.0452 40.4837 22.3144 40.8413 22.6857 41.0605C23.057 41.2797 23.5001 41.3427 23.9177 41.2357L41.2086 36.7831C41.6261 36.6751 41.9836 36.4059 42.2029 36.0346C42.4221 35.6633 42.4851 35.2202 42.378 34.8026L37.3594 15.3138L33.741 13.694L17.8774 17.779Z" fill="white"/>
<path d="M37.8737 14.948L35.1977 15.6371C35.0023 15.6874 34.795 15.658 34.6213 15.5555C34.4476 15.4529 34.3217 15.2855 34.2714 15.0902L33.7624 13.1137C33.7602 13.1051 33.7605 13.096 33.7632 13.0874C33.7659 13.0789 33.7709 13.0713 33.7778 13.0656C33.7846 13.0598 33.7929 13.0561 33.8017 13.0548C33.8106 13.0535 33.8196 13.0548 33.8278 13.0584L37.8811 14.8585C37.8901 14.8625 37.8977 14.8692 37.9027 14.8777C37.9077 14.8862 37.91 14.896 37.9092 14.9059C37.9084 14.9157 37.9045 14.9251 37.8981 14.9326C37.8918 14.9401 37.8832 14.9455 37.8737 14.948Z" fill="#F2F2F2"/>
<path d="M36.4654 32.2894L28.5931 34.3166C28.5448 34.3291 28.4944 34.3319 28.445 34.3249C28.3955 34.3179 28.3479 34.3012 28.3049 34.2758C28.2619 34.2504 28.2243 34.2168 28.1943 34.1769C28.1643 34.137 28.1424 34.0916 28.13 34.0432C28.1175 33.9948 28.1147 33.9445 28.1217 33.895C28.1287 33.8456 28.1454 33.798 28.1708 33.755C28.1962 33.712 28.2298 33.6744 28.2697 33.6444C28.3096 33.6144 28.3551 33.5925 28.4034 33.5801L36.2757 31.5528C36.3241 31.5404 36.3744 31.5376 36.4239 31.5446C36.4733 31.5516 36.5209 31.5683 36.5639 31.5937C36.6069 31.619 36.6445 31.6527 36.6745 31.6926C36.7046 31.7325 36.7264 31.7779 36.7389 31.8263C36.7513 31.8747 36.7541 31.925 36.7471 31.9745C36.7401 32.0239 36.7235 32.0715 36.6981 32.1145C36.6727 32.1575 36.6391 32.1951 36.5991 32.2251C36.5592 32.2551 36.5138 32.277 36.4654 32.2894Z" fill="#CCCCCC"/>
<path d="M38.3049 33.1413L28.9134 35.5597C28.8158 35.5849 28.7121 35.5702 28.6252 35.5189C28.5384 35.4676 28.4754 35.3839 28.4503 35.2863C28.4251 35.1886 28.4398 35.0849 28.4911 34.9981C28.5424 34.9112 28.6261 34.8483 28.7237 34.8231L38.1153 32.4047C38.2129 32.3796 38.3165 32.3944 38.4033 32.4457C38.4901 32.497 38.5529 32.5806 38.5781 32.6782C38.6032 32.7759 38.5886 32.8795 38.5373 32.9663C38.4861 33.0531 38.4025 33.1161 38.3049 33.1413Z" fill="#CCCCCC"/>
<path d="M25.3801 36.7583C26.1225 36.7583 26.7243 36.1565 26.7243 35.4141C26.7243 34.6718 26.1225 34.0699 25.3801 34.0699C24.6377 34.0699 24.0359 34.6718 24.0359 35.4141C24.0359 36.1565 24.6377 36.7583 25.3801 36.7583Z" fill="#E6E6E6"/>
<path d="M35.6286 28.7717L25.1734 31.463C24.8713 31.5404 24.5507 31.4948 24.2821 31.3362C24.0136 31.1776 23.8189 30.9189 23.7408 30.617L21.5498 22.1053C21.4723 21.8032 21.5179 21.4827 21.6765 21.2141C21.8352 20.9455 22.0938 20.7508 22.3958 20.6727L32.851 17.9814C33.1532 17.904 33.4737 17.9496 33.7423 18.1082C34.0109 18.2668 34.2056 18.5255 34.2837 18.8274L36.4747 27.339C36.5521 27.6412 36.5065 27.9617 36.3479 28.2303C36.1893 28.4989 35.9306 28.6936 35.6286 28.7717Z" fill="white"/>
<path d="M35.6286 28.7717L25.1734 31.463C24.8713 31.5404 24.5507 31.4948 24.2821 31.3362C24.0136 31.1776 23.8189 30.9189 23.7408 30.617L21.5498 22.1053C21.4723 21.8032 21.5179 21.4827 21.6765 21.2141C21.8352 20.9455 22.0938 20.7508 22.3958 20.6727L32.851 17.9814C33.1532 17.904 33.4737 17.9496 33.7423 18.1082C34.0109 18.2668 34.2056 18.5255 34.2837 18.8274L36.4747 27.339C36.5521 27.6412 36.5065 27.9617 36.3479 28.2303C36.1893 28.4989 35.9306 28.6936 35.6286 28.7717ZM22.4303 20.8068C22.1639 20.8757 21.9356 21.0475 21.7957 21.2844C21.6557 21.5214 21.6155 21.8042 21.6838 22.0708L23.8748 30.5824C23.9437 30.8489 24.1155 31.0771 24.3525 31.2171C24.5895 31.357 24.8723 31.3973 25.1389 31.329L35.5941 28.6376C35.8606 28.5687 36.0888 28.3969 36.2288 28.16C36.3687 27.923 36.4089 27.6402 36.3406 27.3735L34.1496 18.8619C34.0807 18.5955 33.9089 18.3672 33.6719 18.2273C33.4349 18.0873 33.1521 18.0471 32.8855 18.1154L22.4303 20.8068Z" fill="#E6E6E6"/>
<path d="M32.3206 20.8433L27.044 22.2016C26.9979 22.2145 26.9486 22.2094 26.9061 22.1873C26.8636 22.1652 26.8311 22.1278 26.8151 22.0827C26.8076 22.0591 26.8051 22.0342 26.8076 22.0096C26.81 21.985 26.8175 21.9612 26.8295 21.9396C26.8415 21.9179 26.8578 21.899 26.8773 21.8839C26.8969 21.8687 26.9194 21.8577 26.9433 21.8516L32.3146 20.4689C32.5315 20.5789 32.4745 20.8037 32.3206 20.8433Z" fill="#F2F2F2"/>
<path d="M32.5589 21.7687L27.2823 23.127C27.2362 23.1399 27.1869 23.1348 27.1444 23.1127C27.1019 23.0906 27.0694 23.0532 27.0534 23.0081C27.0459 22.9845 27.0434 22.9597 27.0458 22.935C27.0483 22.9104 27.0558 22.8866 27.0678 22.865C27.0798 22.8433 27.0961 22.8244 27.1156 22.8093C27.1352 22.7941 27.1576 22.7832 27.1816 22.777L32.5528 21.3943C32.7698 21.5043 32.7128 21.7291 32.5589 21.7687Z" fill="#F2F2F2"/>
<path d="M26.2772 23.9477L24.6668 24.3623C24.6143 24.3758 24.5585 24.3678 24.5117 24.3402C24.465 24.3126 24.4311 24.2676 24.4175 24.215L23.9283 22.3147C23.9148 22.2621 23.9227 22.2063 23.9504 22.1595C23.978 22.1128 24.023 22.0789 24.0756 22.0653L25.6859 21.6508C25.7385 21.6373 25.7943 21.6452 25.8411 21.6728C25.8878 21.7004 25.9217 21.7455 25.9353 21.798L26.4245 23.6984C26.438 23.751 26.43 23.8068 26.4024 23.8535C26.3748 23.9003 26.3298 23.9342 26.2772 23.9477Z" fill="#E6E6E6"/>
<path d="M33.0315 23.6677L24.9784 25.7407C24.9323 25.7536 24.883 25.7485 24.8405 25.7264C24.798 25.7043 24.7654 25.6669 24.7495 25.6218C24.742 25.5982 24.7395 25.5734 24.7419 25.5488C24.7444 25.5241 24.7519 25.5003 24.7639 25.4787C24.7759 25.4571 24.7922 25.4381 24.8117 25.423C24.8313 25.4079 24.8537 25.3969 24.8777 25.3907L33.0255 23.2933C33.2424 23.4033 33.1853 23.6281 33.0315 23.6677Z" fill="#F2F2F2"/>
<path d="M33.2698 24.5935L25.2167 26.6665C25.1706 26.6794 25.1213 26.6743 25.0788 26.6522C25.0363 26.6301 25.0037 26.5927 24.9877 26.5476C24.9803 26.524 24.9777 26.4991 24.9802 26.4745C24.9827 26.4499 24.9902 26.4261 25.0022 26.4045C25.0142 26.3828 25.0304 26.3639 25.05 26.3488C25.0696 26.3336 25.092 26.3226 25.116 26.3165L33.2637 24.2191C33.4807 24.3291 33.4236 24.5539 33.2698 24.5935Z" fill="#F2F2F2"/>
<path d="M33.508 25.5189L25.455 27.5919C25.4088 27.6048 25.3595 27.5997 25.317 27.5776C25.2745 27.5555 25.242 27.5181 25.226 27.473C25.2186 27.4494 25.216 27.4246 25.2185 27.4C25.221 27.3753 25.2284 27.3515 25.2404 27.3299C25.2524 27.3083 25.2687 27.2893 25.2883 27.2742C25.3078 27.259 25.3303 27.2481 25.3542 27.2419L33.502 25.1445C33.719 25.2545 33.6619 25.4793 33.508 25.5189Z" fill="#F2F2F2"/>
<path d="M33.7463 26.4447L25.6933 28.5177C25.6471 28.5306 25.5978 28.5255 25.5553 28.5034C25.5128 28.4813 25.4803 28.4439 25.4643 28.3988C25.4569 28.3752 25.4543 28.3503 25.4568 28.3257C25.4593 28.3011 25.4667 28.2773 25.4787 28.2557C25.4907 28.234 25.507 28.2151 25.5266 28.2C25.5461 28.1848 25.5686 28.1738 25.5925 28.1677L33.7403 26.0703C33.9573 26.1803 33.9002 26.4051 33.7463 26.4447Z" fill="#F2F2F2"/>
<path d="M33.9842 27.3701L25.9312 29.4431C25.885 29.456 25.8357 29.4509 25.7932 29.4288C25.7507 29.4067 25.7182 29.3693 25.7022 29.3242C25.6947 29.3006 25.6922 29.2758 25.6947 29.2511C25.6971 29.2265 25.7046 29.2027 25.7166 29.1811C25.7286 29.1594 25.7449 29.1405 25.7645 29.1254C25.784 29.1102 25.8065 29.0993 25.8304 29.0931L33.9782 26.9957C34.1952 27.1057 34.1381 27.3305 33.9842 27.3701Z" fill="#F2F2F2"/>
<path d="M25.4796 35.8852C25.4504 35.8928 25.4194 35.8907 25.3915 35.8791L25.3897 35.8784L25.0236 35.7232C25.0066 35.716 24.9911 35.7055 24.9782 35.6923C24.9653 35.6792 24.955 35.6636 24.9481 35.6465C24.9412 35.6294 24.9377 35.6111 24.9379 35.5926C24.9381 35.5742 24.9419 35.5559 24.9491 35.539C24.9563 35.522 24.9668 35.5066 24.98 35.4937C24.9932 35.4807 25.0087 35.4705 25.0259 35.4637C25.043 35.4568 25.0613 35.4533 25.0798 35.4535C25.0982 35.4537 25.1164 35.4575 25.1334 35.4648L25.3707 35.5657L25.6816 34.8343C25.6888 34.8173 25.6993 34.8019 25.7125 34.789C25.7256 34.7761 25.7412 34.7659 25.7583 34.759C25.7754 34.7521 25.7936 34.7487 25.8121 34.7488C25.8305 34.749 25.8487 34.7528 25.8657 34.76L25.8639 34.7648L25.8658 34.76C25.9 34.7746 25.9271 34.8022 25.941 34.8367C25.9549 34.8712 25.9545 34.9099 25.94 34.9441L25.5742 35.8041C25.5657 35.824 25.5528 35.8416 25.5364 35.8556C25.52 35.8696 25.5006 35.8797 25.4797 35.885L25.4796 35.8852Z" fill="white"/>
<path d="M48.0052 45.1582H30.1502C29.5447 45.1576 28.9642 44.9167 28.5361 44.4886C28.1079 44.0604 27.8671 43.48 27.8664 42.8745V21.9052C27.8671 21.2998 28.1079 20.7193 28.5361 20.2911C28.9642 19.863 29.5447 19.6221 30.1502 19.6215H46.7613L50.289 22.4332V42.8745C50.2883 43.48 50.0474 44.0604 49.6193 44.4886C49.1912 44.9167 48.6107 45.1576 48.0052 45.1582Z" fill="#E6E6E6"/>
<path d="M30.1502 20.2789C29.719 20.2794 29.3056 20.4509 29.0007 20.7558C28.6958 21.0607 28.5243 21.4741 28.5238 21.9053V42.8745C28.5243 43.3057 28.6958 43.719 29.0007 44.0239C29.3056 44.3288 29.719 44.5003 30.1502 44.5008H48.0051C48.4363 44.5003 48.8497 44.3288 49.1546 44.0239C49.4595 43.719 49.631 43.3057 49.6315 42.8745V22.7499L46.5313 20.2789H30.1502Z" fill="white"/>
<path d="M44.5321 26.3762H36.403C36.3021 26.3762 36.2054 26.3362 36.134 26.2648C36.0627 26.1935 36.0227 26.0968 36.0227 25.9959C36.0227 25.895 36.0627 25.7983 36.134 25.727C36.2054 25.6557 36.3021 25.6156 36.403 25.6156H44.5321C44.633 25.6156 44.7297 25.6557 44.801 25.727C44.8723 25.7983 44.9124 25.895 44.9124 25.9959C44.9124 26.0968 44.8723 26.1935 44.801 26.2648C44.7297 26.3362 44.633 26.3762 44.5321 26.3762Z" fill="#E4AF00"/>
<path d="M46.1007 27.6597H36.4028C36.3021 27.6595 36.2055 27.6194 36.1343 27.5481C36.063 27.4768 36.023 27.3801 36.023 27.2794C36.023 27.1786 36.063 27.0819 36.1343 27.0106C36.2055 26.9393 36.3021 26.8992 36.4028 26.899H46.1007C46.1507 26.899 46.2002 26.9088 46.2464 26.9278C46.2926 26.9469 46.3346 26.9749 46.37 27.0103C46.4054 27.0456 46.4334 27.0875 46.4526 27.1337C46.4717 27.1799 46.4816 27.2294 46.4816 27.2794C46.4816 27.3293 46.4717 27.3788 46.4526 27.425C46.4334 27.4712 46.4054 27.5131 46.37 27.5485C46.3346 27.5838 46.2926 27.6118 46.2464 27.6309C46.2002 27.6499 46.1507 27.6597 46.1007 27.6597Z" fill="#E4AF00"/>
<path d="M44.5322 31.3676H36.4033C36.3025 31.3676 36.2057 31.4076 36.1344 31.4789C36.0631 31.5503 36.023 31.647 36.023 31.7478C36.023 31.8487 36.0631 31.9454 36.1344 32.0167C36.2057 32.0881 36.3025 32.1281 36.4033 32.1281H44.5322C44.6331 32.1281 44.7298 32.0881 44.8011 32.0167C44.8724 31.9454 44.9125 31.8487 44.9125 31.7478C44.9125 31.647 44.8724 31.5503 44.8011 31.4789C44.7298 31.4076 44.6331 31.3676 44.5322 31.3676Z" fill="#CCCCCC"/>
<path d="M46.1011 32.6512H36.4033C36.3025 32.6512 36.2057 32.6913 36.1344 32.7626C36.0631 32.8339 36.023 32.9306 36.023 33.0315C36.023 33.1323 36.0631 33.2291 36.1344 33.3004C36.2057 33.3717 36.3025 33.4118 36.4033 33.4118H46.1011C46.2019 33.4118 46.2987 33.3717 46.37 33.3004C46.4413 33.2291 46.4814 33.1323 46.4814 33.0315C46.4814 32.9306 46.4413 32.8339 46.37 32.7626C46.2987 32.6913 46.2019 32.6512 46.1011 32.6512Z" fill="#CCCCCC"/>
<path d="M44.5321 37.8806H36.403C36.3021 37.8806 36.2054 37.8405 36.134 37.7692C36.0627 37.6978 36.0227 37.6011 36.0227 37.5002C36.0227 37.3994 36.0627 37.3026 36.134 37.2313C36.2054 37.16 36.3021 37.1199 36.403 37.1199H44.5321C44.633 37.1199 44.7297 37.16 44.801 37.2313C44.8723 37.3026 44.9124 37.3994 44.9124 37.5002C44.9124 37.6011 44.8723 37.6978 44.801 37.7692C44.7297 37.8405 44.633 37.8806 44.5321 37.8806Z" fill="#CCCCCC"/>
<path d="M46.1007 39.1641H36.4028C36.3021 39.164 36.2055 39.1239 36.1343 39.0526C36.063 38.9812 36.023 38.8846 36.023 38.7838C36.023 38.683 36.063 38.5864 36.1343 38.5151C36.2055 38.4438 36.3021 38.4036 36.4028 38.4035H46.1007C46.1507 38.4034 46.2002 38.4132 46.2464 38.4323C46.2926 38.4514 46.3346 38.4794 46.37 38.5147C46.4054 38.55 46.4334 38.592 46.4526 38.6382C46.4717 38.6843 46.4816 38.7338 46.4816 38.7838C46.4816 38.8338 46.4717 38.8833 46.4526 38.9295C46.4334 38.9756 46.4054 39.0176 46.37 39.0529C46.3346 39.0882 46.2926 39.1162 46.2464 39.1353C46.2002 39.1544 46.1507 39.1642 46.1007 39.1641Z" fill="#CCCCCC"/>
<path d="M33.018 27.9817C33.7604 27.9817 34.3622 27.3799 34.3622 26.6375C34.3622 25.8951 33.7604 25.2933 33.018 25.2933C32.2756 25.2933 31.6738 25.8951 31.6738 26.6375C31.6738 27.3799 32.2756 27.9817 33.018 27.9817Z" fill="#E4AF00"/>
<path d="M32.8846 27.1504C32.8544 27.1505 32.8249 27.1407 32.8007 27.1226L32.7992 27.1214L32.4833 26.8798C32.4687 26.8686 32.4563 26.8546 32.4471 26.8386C32.4378 26.8227 32.4318 26.805 32.4294 26.7867C32.4269 26.7684 32.4281 26.7498 32.4329 26.732C32.4376 26.7141 32.4459 26.6974 32.4571 26.6828C32.4683 26.6681 32.4823 26.6558 32.4983 26.6466C32.5143 26.6374 32.532 26.6314 32.5503 26.629C32.5686 26.6266 32.5872 26.6278 32.605 26.6326C32.6228 26.6374 32.6395 26.6457 32.6542 26.657L32.8588 26.8139L33.3423 26.1831C33.3535 26.1684 33.3675 26.1562 33.3834 26.1469C33.3994 26.1377 33.417 26.1317 33.4353 26.1293C33.4536 26.1269 33.4721 26.1281 33.4899 26.1329C33.5077 26.1376 33.5244 26.1459 33.539 26.1571L33.5361 26.1613L33.5392 26.1571C33.5687 26.1798 33.588 26.2132 33.5928 26.2501C33.5977 26.287 33.5877 26.3243 33.5651 26.3539L32.9964 27.0955C32.9832 27.1126 32.9663 27.1264 32.947 27.1359C32.9276 27.1454 32.9063 27.1503 32.8847 27.1503L32.8846 27.1504Z" fill="white"/>
<path d="M34.4999 32.3898C34.5 32.5663 34.4653 32.7412 34.3978 32.9043C34.3303 33.0674 34.2313 33.2156 34.1065 33.3405C33.9817 33.4654 33.8335 33.5644 33.6704 33.632C33.5073 33.6996 33.3325 33.7344 33.156 33.7344C33.1444 33.7347 33.1329 33.7342 33.1214 33.7331C32.8571 33.7263 32.6006 33.6417 32.3842 33.4899C32.1677 33.3381 32.0008 33.1259 31.9043 32.8797C31.8079 32.6335 31.7862 32.3644 31.8419 32.1059C31.8977 31.8475 32.0284 31.6112 32.2178 31.4267C32.4072 31.2422 32.6467 31.1176 32.9065 31.0686C33.1663 31.0196 33.4348 31.0482 33.6784 31.151C33.922 31.2538 34.1299 31.4262 34.276 31.6465C34.4221 31.8669 34.5 32.1254 34.4999 32.3898Z" fill="#CCCCCC"/>
<path d="M33.018 39.4862C33.7604 39.4862 34.3622 38.8844 34.3622 38.142C34.3622 37.3997 33.7604 36.7979 33.018 36.7979C32.2756 36.7979 31.6738 37.3997 31.6738 38.142C31.6738 38.8844 32.2756 39.4862 33.018 39.4862Z" fill="#CCCCCC"/>
<path d="M50.22 22.5235H47.4567C47.255 22.5235 47.0615 22.4434 46.9189 22.3008C46.7762 22.1581 46.6961 21.9646 46.6961 21.7629V19.722C46.6961 19.713 46.6986 19.7043 46.7034 19.6967C46.7081 19.6891 46.7149 19.6831 46.7229 19.6792C46.731 19.6753 46.74 19.6737 46.7488 19.6747C46.7577 19.6757 46.7661 19.6792 46.7731 19.6847L50.2495 22.4387C50.2573 22.4449 50.2629 22.4532 50.2657 22.4627C50.2684 22.4722 50.2682 22.4823 50.2649 22.4916C50.2617 22.5009 50.2556 22.509 50.2476 22.5147C50.2395 22.5205 50.2299 22.5235 50.22 22.5235Z" fill="#CCCCCC"/>
<path d="M34.5005 32.3897C34.5005 32.5663 34.4658 32.7411 34.3983 32.9042C34.3308 33.0674 34.2318 33.2156 34.107 33.3405C33.9822 33.4653 33.834 33.5644 33.6709 33.632C33.5078 33.6996 33.333 33.7344 33.1565 33.7344C33.1449 33.7346 33.1334 33.7342 33.1219 33.733C32.9482 33.2999 32.8813 32.8313 32.9267 32.3669C32.9721 31.9025 33.1285 31.4558 33.3828 31.0645C33.6955 31.1181 33.9791 31.2805 34.1837 31.523C34.3882 31.7655 34.5004 32.0725 34.5005 32.3897Z" fill="#E4AF00"/>
<path d="M36.0227 31.7482C36.0228 31.6473 36.063 31.5506 36.1343 31.4792C36.2057 31.4079 36.3024 31.3677 36.4033 31.3676H38.4289C38.5472 31.6082 38.6313 31.8642 38.6788 32.1281H36.4033C36.3025 32.1281 36.2058 32.0881 36.1344 32.0169C36.0631 31.9456 36.0229 31.849 36.0227 31.7482Z" fill="#E4AF00"/>
<path d="M38.7259 32.6512C38.726 32.9081 38.692 33.1638 38.6248 33.4118H36.4033C36.3025 33.4118 36.2057 33.3717 36.1344 33.3004C36.0631 33.2291 36.023 33.1323 36.023 33.0315C36.023 32.9306 36.0631 32.8339 36.1344 32.7626C36.2057 32.6913 36.3025 32.6512 36.4033 32.6512H38.7259Z" fill="#E4AF00"/>
<path d="M43.7379 37.3418C43.6805 37.4358 43.5882 37.5032 43.4811 37.5291C43.3741 37.5551 43.2612 37.5374 43.1672 37.4801L38.3224 34.525C38.2759 34.4966 38.2354 34.4593 38.2032 34.4152C38.1711 34.3712 38.1479 34.3212 38.1351 34.2683C38.1223 34.2153 38.12 34.1602 38.1284 34.1064C38.1368 34.0525 38.1558 34.0008 38.1842 33.9543C38.2126 33.9077 38.2499 33.8672 38.2939 33.8351C38.338 33.8029 38.3879 33.7798 38.4409 33.7669C38.4939 33.7541 38.5489 33.7518 38.6028 33.7602C38.6567 33.7686 38.7083 33.7876 38.7549 33.816L43.5996 36.7711C43.6936 36.8284 43.761 36.9208 43.7869 37.0278C43.8129 37.1348 43.7952 37.2478 43.7379 37.3418Z" fill="#3F3D56"/>
<path d="M38.8929 34.3868C38.5508 34.9477 38.0501 35.3946 37.454 35.6708C36.8579 35.9471 36.1933 36.0405 35.5441 35.939C34.895 35.8376 34.2906 35.5459 33.8072 35.101C33.3238 34.656 32.9832 34.0777 32.8285 33.4391C32.6739 32.8006 32.712 32.1306 32.9381 31.5137C33.1642 30.8968 33.5682 30.3609 34.0989 29.9736C34.6297 29.5863 35.2633 29.3651 35.9197 29.338C36.5762 29.3108 37.2259 29.4789 37.7868 29.8211C38.5382 30.2805 39.0766 31.0193 39.284 31.8752C39.4913 32.7312 39.3507 33.6344 38.8929 34.3868ZM33.9301 31.3596C33.6735 31.7803 33.5474 32.2676 33.5677 32.76C33.5881 33.2523 33.754 33.7275 34.0445 34.1256C34.3349 34.5236 34.7369 34.8266 35.1995 34.9962C35.6622 35.1658 36.1647 35.1944 36.6436 35.0784C37.1225 34.9623 37.5563 34.7069 37.89 34.3444C38.2237 33.9819 38.4425 33.5285 38.5185 33.0417C38.5946 32.5548 38.5246 32.0563 38.3174 31.6093C38.1102 31.1622 37.775 30.7866 37.3544 30.5301C36.7901 30.1867 36.1126 30.0813 35.4707 30.2368C34.8287 30.3923 34.2747 30.7961 33.9301 31.3596Z" fill="#3F3D56"/>
<path d="M49.5365 33.1895C50.4752 33.1895 51.2362 32.4285 51.2362 31.4898C51.2362 30.551 50.4752 29.79 49.5365 29.79C48.5977 29.79 47.8367 30.551 47.8367 31.4898C47.8367 32.4285 48.5977 33.1895 49.5365 33.1895Z" fill="#A0616A"/>
<path d="M49.4263 41.0188C49.3935 40.9166 49.3827 40.8087 49.3945 40.7021C49.4063 40.5955 49.4406 40.4926 49.4949 40.4001C49.5493 40.3076 49.6226 40.2277 49.71 40.1656C49.7975 40.1034 49.897 40.0604 50.0022 40.0394C50.0356 40.0329 50.0693 40.0288 50.1032 40.027L51.8937 37.1533L50.2582 35.5985C50.1957 35.5391 50.1456 35.4679 50.1108 35.389C50.0759 35.3102 50.0571 35.2252 50.0553 35.139C50.0535 35.0528 50.0688 34.9671 50.1003 34.8868C50.1319 34.8065 50.179 34.7333 50.2389 34.6714C50.2989 34.6094 50.3706 34.56 50.4497 34.5259C50.5289 34.4918 50.6141 34.4737 50.7003 34.4727C50.7865 34.4717 50.8721 34.4878 50.9521 34.52C51.032 34.5523 51.1048 34.6001 51.1662 34.6606L53.4243 36.8872L53.4289 36.8927C53.4987 36.999 53.5324 37.125 53.525 37.252C53.5176 37.3789 53.4695 37.5001 53.3877 37.5976L50.879 40.5646C50.8865 40.5884 50.8928 40.6125 50.8977 40.637C50.9187 40.7422 50.9172 40.8506 50.8934 40.9552C50.8695 41.0598 50.8238 41.1582 50.7593 41.2439C50.6948 41.3296 50.6129 41.4007 50.519 41.4525C50.425 41.5044 50.3212 41.5358 50.2143 41.5447C50.1927 41.5466 50.1712 41.5475 50.1498 41.5475C49.9889 41.5469 49.8323 41.4954 49.7023 41.4004C49.5724 41.3055 49.4758 41.1719 49.4263 41.0188Z" fill="#A0616A"/>
<path d="M46.7368 55.1461L45.8884 55.146L45.4848 51.8734L46.737 51.8735L46.7368 55.1461Z" fill="#A0616A"/>
<path d="M46.9533 55.9685L44.2176 55.9684V55.9338C44.2176 55.7939 44.2451 55.6555 44.2986 55.5263C44.3521 55.3971 44.4306 55.2797 44.5295 55.1808C44.6283 55.0819 44.7457 55.0035 44.8749 54.95C45.0041 54.8965 45.1426 54.869 45.2824 54.869L46.9534 54.869L46.9533 55.9685Z" fill="#2F2E41"/>
<path d="M55.1701 53.973L54.4411 54.4071L52.4199 51.8018L53.4959 51.1611L55.1701 53.973Z" fill="#A0616A"/>
<path d="M55.7768 54.5691L53.4262 55.9687L53.4085 55.9389C53.337 55.8188 53.2898 55.6857 53.2697 55.5473C53.2495 55.409 53.2569 55.268 53.2913 55.1324C53.3256 54.9969 53.3864 54.8694 53.47 54.7574C53.5536 54.6453 53.6585 54.5508 53.7786 54.4792L55.2144 53.6244L55.7768 54.5691Z" fill="#2F2E41"/>
<path d="M45.3778 53.7049C44.8094 47.0123 44.4713 40.795 46.549 38.2587L46.5651 38.2391L50.0617 39.6378L50.0675 39.6503C50.0793 39.676 51.2422 42.2339 50.9709 43.9545L51.8334 47.9219L54.6456 52.6307C54.6682 52.6686 54.6825 52.7109 54.6876 52.7547C54.6927 52.7986 54.6883 52.843 54.6749 52.8851C54.6615 52.9272 54.6393 52.9659 54.6098 52.9987C54.5802 53.0316 54.5441 53.0577 54.5037 53.0755L53.2816 53.6132C53.2126 53.6432 53.1351 53.6474 53.0633 53.625C52.9915 53.6025 52.9302 53.555 52.8907 53.491L49.8315 48.5027L48.1036 44.6766C48.0942 44.6558 48.0782 44.6387 48.0582 44.6279C48.0381 44.6171 48.015 44.6132 47.9925 44.6169C47.97 44.6205 47.9493 44.6314 47.9336 44.6479C47.918 44.6645 47.9082 44.6857 47.9057 44.7084L46.9479 53.7118C46.9399 53.7883 46.9038 53.8591 46.8466 53.9105C46.7894 53.962 46.7152 53.9904 46.6383 53.9903H45.6882C45.6102 53.9898 45.5352 53.9603 45.4778 53.9076C45.4205 53.8548 45.3848 53.7826 45.3778 53.7049Z" fill="#2F2E41"/>
<path d="M46.561 38.3118L46.5444 38.3038L46.5418 38.2855C46.4112 37.3713 46.5658 36.3555 47.0013 35.2664C47.216 34.7334 47.615 34.2952 48.1257 34.0317C48.6363 33.7682 49.2247 33.6969 49.7835 33.8309C50.1054 33.9102 50.4073 34.0555 50.6701 34.2576C50.9329 34.4597 51.1509 34.7141 51.3102 35.0048C51.4675 35.2926 51.5633 35.6099 51.5916 35.9366C51.6198 36.2633 51.5799 36.5923 51.4744 36.9028C50.9253 38.5084 50.2131 40.0106 50.206 40.0256L50.191 40.057L46.561 38.3118Z" fill="#E4AF00"/>
<path d="M42.7458 36.0346C42.83 35.9681 42.9273 35.9202 43.0313 35.894C43.1353 35.8677 43.2437 35.8637 43.3493 35.8823C43.455 35.9008 43.5555 35.9415 43.6444 36.0016C43.7332 36.0618 43.8083 36.14 43.8648 36.2312C43.8826 36.2601 43.8983 36.2902 43.9119 36.3214L47.2305 36.9921L48.1142 34.9157C48.1479 34.8364 48.1971 34.7645 48.2588 34.7043C48.3204 34.6441 48.3935 34.5966 48.4736 34.5648C48.5537 34.5329 48.6393 34.5172 48.7255 34.5186C48.8118 34.5201 48.8968 34.5385 48.9759 34.573C49.0549 34.6075 49.1263 34.6573 49.186 34.7195C49.2456 34.7818 49.2924 34.8552 49.3235 34.9356C49.3547 35.016 49.3695 35.1018 49.3673 35.188C49.3651 35.2742 49.3459 35.3591 49.3107 35.4378L48.0158 38.3327L48.0122 38.3389C47.9372 38.4415 47.831 38.5172 47.7094 38.5547C47.5879 38.5923 47.4575 38.5896 47.3376 38.5472L43.68 37.2364C43.6603 37.2517 43.6399 37.266 43.6187 37.2792C43.5275 37.3357 43.4254 37.3723 43.3191 37.3866C43.2128 37.4008 43.1046 37.3925 43.0018 37.3621C42.8989 37.3317 42.8036 37.2798 42.7222 37.21C42.6407 37.1402 42.5749 37.054 42.5291 36.957C42.5198 36.9374 42.5114 36.9176 42.5039 36.8975C42.4482 36.7465 42.4416 36.5818 42.485 36.4269C42.5284 36.2719 42.6197 36.1346 42.7458 36.0346Z" fill="#A0616A"/>
<path d="M55.6772 33.31C55.5134 33.0199 55.2749 32.7542 54.9596 32.647C54.5523 32.5085 54.1113 32.656 53.6926 32.7544C53.37 32.8303 53.033 32.8767 52.7078 32.8127C52.3826 32.7487 52.069 32.5594 51.921 32.2629C51.7034 31.8267 51.8867 31.3064 51.8735 30.8191C51.8667 30.5538 51.7998 30.2935 51.6777 30.0579C51.5557 29.8222 51.3818 29.6173 51.1691 29.4587C50.9563 29.3 50.7104 29.1917 50.4497 29.1419C50.189 29.0921 49.9205 29.1022 49.6642 29.1713C49.2633 29.0556 48.9003 29.0449 48.6523 29.3531C48.3403 29.3531 48.041 29.477 47.8204 29.6977C47.5997 29.9183 47.4758 30.2176 47.4758 30.5296H48.6007C48.5474 30.8164 48.6084 31.1128 48.7706 31.3553C48.9692 31.647 49.3145 31.8581 49.381 32.2047C49.4454 32.5406 49.2171 32.8593 48.9776 33.1035C48.7381 33.3476 48.4602 33.5895 48.3855 33.9233C48.3396 34.1766 48.3917 34.4379 48.531 34.6544C48.6702 34.8683 48.8427 35.0584 49.0422 35.2175C49.9408 35.9873 51.0089 36.5337 52.159 36.812C52.969 37.007 53.855 37.0575 54.6069 36.6988C54.9077 36.5553 55.1758 36.3514 55.3945 36.1C55.6132 35.8485 55.7778 35.5547 55.8782 35.2369C55.9786 34.9191 56.0125 34.584 55.9779 34.2526C55.9433 33.9211 55.841 33.6003 55.6772 33.31Z" fill="#2F2E41"/>
<path d="M55.9307 56.0406H42.7817C42.7634 56.0406 42.7457 56.0333 42.7328 56.0203C42.7198 56.0073 42.7125 55.9897 42.7125 55.9714C42.7125 55.953 42.7198 55.9354 42.7328 55.9224C42.7457 55.9095 42.7634 55.9022 42.7817 55.9022H55.9307C55.9491 55.9022 55.9667 55.9095 55.9797 55.9224C55.9926 55.9354 55.9999 55.953 55.9999 55.9714C55.9999 55.9897 55.9926 56.0073 55.9797 56.0203C55.9667 56.0333 55.9491 56.0406 55.9307 56.0406Z" fill="#CCCCCC"/>
</svg>
