<svg width="70" height="70" viewBox="0 0 70 70" fill="none" xmlns="http://www.w3.org/2000/svg">
<circle cx="35" cy="35" r="35" fill="#E4AF00" fill-opacity="0.1"/>
<path opacity="0.2" d="M51.3449 53.614C39.2368 53.614 30.9221 58.5 25.0877 58.5C19.2534 58.5 7 55.8872 7 34.9784C7 14.0696 23.4843 11 29.9015 11C59.952 11 72.7883 53.614 51.3449 53.614Z" fill="#E4AF00"/>
<path d="M54.2943 47.3704H30.1301C29.4728 47.3704 28.9381 46.77 28.9381 46.032V27.7938C28.9353 27.6547 28.9706 27.5175 29.0401 27.3976C29.1096 27.2776 29.2106 27.1796 29.3318 27.1145L38.4631 21.5041C38.9636 21.2519 39.5148 21.1204 40.0735 21.1199C40.6323 21.1193 41.1837 21.2497 41.6848 21.5008L55.0902 27.1139C55.212 27.1788 55.3136 27.2769 55.3835 27.3971C55.4535 27.5172 55.4891 27.6548 55.4863 27.7944V46.032C55.4863 46.77 54.9516 47.3704 54.2943 47.3704Z" fill="#F2F2F2"/>
<path d="M50.7262 47.3507H29.9758C29.409 47.3507 28.9479 46.9269 28.9479 46.406V33.6573C28.9506 33.5511 28.9847 33.4481 29.0458 33.3618C29.1069 33.2755 29.1921 33.2098 29.2904 33.1733L38.9523 29.2506C39.8401 28.8942 40.8282 28.8937 41.7164 29.2492L51.411 33.1734C51.5095 33.2099 51.5949 33.2755 51.6561 33.3619C51.7173 33.4483 51.7514 33.5514 51.7541 33.6577V46.406C51.7541 46.9269 51.293 47.3507 50.7262 47.3507Z" fill="#E4AF00"/>
<path d="M19.5383 43.5719C19.55 43.5946 19.5525 43.621 19.545 43.6455C19.5375 43.67 19.5207 43.6905 19.4984 43.7024L18.9461 43.9975L18.8574 43.8265L19.4097 43.5314C19.432 43.5195 19.4581 43.517 19.4822 43.5246C19.5064 43.5322 19.5265 43.5492 19.5383 43.5719Z" fill="#CCCCCC"/>
<path d="M35.506 38.5896V37.2711C35.506 37.0991 35.4386 36.9342 35.3188 36.8126C35.199 36.691 35.0365 36.6227 34.8671 36.6227H31.5888C31.4194 36.6227 31.2569 36.691 31.1371 36.8126C31.0173 36.9342 30.95 37.0991 30.95 37.2711V38.5896H35.506Z" fill="white"/>
<path d="M30.95 38.7965V40.8397C30.95 41.0117 31.0173 41.1766 31.1371 41.2982C31.2569 41.4198 31.4194 41.4881 31.5888 41.4881H34.8671C35.0365 41.4881 35.199 41.4198 35.3188 41.2982C35.4386 41.1766 35.506 41.0117 35.506 40.8397V38.7965H30.95Z" fill="white"/>
<path d="M50.9649 34.9703L41.1226 31.3084C40.5244 31.0859 39.8678 31.0859 39.2696 31.3084L29.4272 34.9703C29.2198 35.0475 28.997 35.0727 28.7779 35.0438C28.5588 35.0149 28.3499 34.9328 28.1687 34.8044C27.9876 34.676 27.8397 34.5051 27.7376 34.3062C27.6354 34.1074 27.5821 33.8865 27.5821 33.6622C27.5821 33.3769 27.6684 33.0984 27.8294 32.8644C27.9904 32.6305 28.2183 32.4524 28.4823 32.3542L39.2696 28.3408C39.8678 28.1182 40.5244 28.1182 41.1226 28.3408L51.9098 32.3542C52.1738 32.4524 52.4017 32.6305 52.5627 32.8644C52.7237 33.0984 52.8101 33.3769 52.8101 33.6622C52.8101 33.8865 52.7567 34.1074 52.6546 34.3062C52.5525 34.5051 52.4045 34.676 52.2234 34.8044C52.0423 34.9328 51.8333 35.0149 51.6142 35.0438C51.3951 35.0727 51.1724 35.0475 50.9649 34.9703Z" fill="#3F3D56"/>
<path d="M41.7853 47.4115H39.1547C38.8756 47.4111 38.6079 47.2984 38.4105 47.0981C38.2131 46.8977 38.1021 46.6261 38.1017 46.3428V39.8771C38.1021 39.5937 38.2131 39.3221 38.4105 39.1217C38.6079 38.9214 38.8756 38.8087 39.1547 38.8083H41.7853C42.0644 38.8087 42.3321 38.9214 42.5295 39.1217C42.7269 39.3221 42.8379 39.5937 42.8382 39.8771V46.3428C42.8379 46.6261 42.7269 46.8977 42.5295 47.0981C42.3321 47.2984 42.0644 47.4111 41.7853 47.4115ZM39.1547 38.9916C38.9234 38.9918 38.7016 39.0852 38.5381 39.2512C38.3745 39.4172 38.2825 39.6423 38.2823 39.8771V46.3428C38.2825 46.5775 38.3745 46.8026 38.5381 46.9686C38.7016 47.1346 38.9234 47.228 39.1547 47.2283H41.7853C42.0166 47.228 42.2383 47.1346 42.4019 46.9686C42.5655 46.8026 42.6575 46.5775 42.6577 46.3428V39.8771C42.6575 39.6423 42.5655 39.4172 42.4019 39.2512C42.2383 39.0852 42.0166 38.9918 41.7853 38.9916H39.1547Z" fill="#3F3D56"/>
<path d="M42.0405 25.0568C41.9981 24.5761 41.78 24.1289 41.4291 23.8032C41.0783 23.4775 40.62 23.2969 40.1445 23.2969C39.669 23.2969 39.2107 23.4775 38.8598 23.8032C38.5089 24.1289 38.2908 24.5761 38.2484 25.0568H42.0405Z" fill="white"/>
<path d="M38.2412 25.264C38.25 25.7704 38.4543 26.2531 38.8103 26.6081C39.1663 26.963 39.6453 27.162 40.1444 27.162C40.6434 27.162 41.1224 26.963 41.4784 26.6081C41.8344 26.2531 42.0387 25.7704 42.0475 25.264H38.2412Z" fill="white"/>
<path d="M41.7424 27.3994H38.5464C38.3942 27.3994 38.2482 27.3381 38.1405 27.2288C38.0328 27.1195 37.9724 26.9713 37.9724 26.8168C37.9724 26.6623 38.0328 26.5141 38.1405 26.4048C38.2482 26.2955 38.3942 26.2341 38.5464 26.2341H41.7424C41.8947 26.2341 42.0407 26.2955 42.1484 26.4048C42.256 26.5141 42.3165 26.6623 42.3165 26.8168C42.3165 26.9713 42.256 27.1195 42.1484 27.2288C42.0407 27.3381 41.8947 27.3994 41.7424 27.3994Z" fill="#CCCCCC"/>
<path d="M30.9841 40.8286C30.8478 40.8286 30.7171 40.8836 30.6207 40.9814C30.5243 41.0792 30.4702 41.2119 30.4702 41.3502C30.4702 41.4885 30.5243 41.6212 30.6207 41.719C30.7171 41.8168 30.8478 41.8718 30.9841 41.8718H35.4721C35.6084 41.8718 35.7391 41.8168 35.8355 41.719C35.9318 41.6212 35.986 41.4885 35.986 41.3502C35.986 41.2119 35.9318 41.0792 35.8355 40.9814C35.7391 40.8836 35.6084 40.8286 35.4721 40.8286H30.9841Z" fill="#CCCCCC"/>
<path d="M44.924 38.7965V40.8397C44.924 41.0117 44.9913 41.1766 45.1111 41.2982C45.2309 41.4198 45.3934 41.4881 45.5629 41.4881H48.8411C49.0106 41.4881 49.1731 41.4198 49.2929 41.2982C49.4127 41.1766 49.48 41.0117 49.48 40.8397V38.7965H44.924Z" fill="white"/>
<path d="M49.48 38.5896V37.2711C49.48 37.0991 49.4127 36.9342 49.2929 36.8126C49.1731 36.691 49.0106 36.6227 48.8411 36.6227H45.5629C45.3934 36.6227 45.2309 36.691 45.1111 36.8126C44.9913 36.9342 44.924 37.0991 44.924 37.2711V38.5896H49.48Z" fill="white"/>
<path d="M42.034 43.317C42.2405 43.317 42.408 43.1471 42.408 42.9374C42.408 42.7278 42.2405 42.5579 42.034 42.5579C41.8274 42.5579 41.66 42.7278 41.66 42.9374C41.66 43.1471 41.8274 43.317 42.034 43.317Z" fill="#3F3D56"/>
<path d="M49.412 41.9326H44.924C44.7717 41.9326 44.6257 41.8713 44.5181 41.762C44.4104 41.6527 44.3499 41.5045 44.3499 41.35C44.3499 41.1955 44.4104 41.0473 44.5181 40.938C44.6257 40.8287 44.7717 40.7673 44.924 40.7673H49.412C49.5642 40.7673 49.7103 40.8287 49.8179 40.938C49.9256 41.0473 49.9861 41.1955 49.9861 41.35C49.9861 41.5045 49.9256 41.6527 49.8179 41.762C49.7103 41.8713 49.5642 41.9326 49.412 41.9326Z" fill="#CCCCCC"/>
<path d="M55.4408 28.4021C55.4408 28.4021 54.3524 28.3237 52.1314 28.2189C49.4839 23.5166 40.8794 22.3832 40.8794 19L51.4553 19C52.5134 19 53.5282 19.4266 54.2764 20.186C55.0246 20.9454 55.445 21.9754 55.445 23.0493L55.4408 28.4021Z" fill="#02275D"/>
<path d="M46.2682 20.2362C46.2442 20.2362 46.2213 20.2459 46.2044 20.2631C46.1875 20.2802 46.1779 20.3035 46.1779 20.3278V23.3861C46.1779 23.4104 46.1875 23.4337 46.2044 23.4509C46.2213 23.4681 46.2442 23.4777 46.2682 23.4777H48.1452C48.1691 23.4777 48.192 23.4681 48.209 23.4509C48.2259 23.4337 48.2354 23.4104 48.2354 23.3861V20.3278C48.2354 20.3035 48.2259 20.2802 48.209 20.2631C48.192 20.2459 48.1691 20.2362 48.1452 20.2362H46.2682Z" fill="#F2F2F2"/>
<path d="M51.4814 28.1555L41.6391 22.1346C41.0409 21.912 40.3843 21.912 39.7861 22.1346L29.9437 28.1555C29.7363 28.2326 29.5136 28.2579 29.2945 28.229C29.0754 28.2001 28.8664 28.118 28.6852 27.9896C28.5041 27.8611 28.3562 27.6903 28.2541 27.4914C28.1519 27.2926 28.0986 27.0717 28.0986 26.8474C28.0986 26.5621 28.1849 26.2836 28.3459 26.0496C28.5069 25.8157 28.7348 25.6376 28.9988 25.5394L39.7861 19.1669C40.3843 18.9444 41.0409 18.9444 41.6391 19.1669L52.4263 25.5394C52.6903 25.6376 52.9182 25.8157 53.0792 26.0496C53.2402 26.2836 53.3266 26.562 53.3266 26.8474C53.3266 27.0716 53.2732 27.2926 53.1711 27.4914C53.069 27.6903 52.9211 27.8611 52.7399 27.9896C52.5588 28.118 52.3498 28.2001 52.1307 28.229C51.9116 28.2579 51.6889 28.2326 51.4814 28.1555Z" fill="#02275D"/>
<path d="M35.981 43.4952H16.3989V49.6712H35.981V43.4952Z" fill="#B27D0A"/>
<path d="M21.8602 42.7419C22.0359 42.8801 22.1001 42.9247 22.1375 42.9191C23.9503 43.4537 22.3611 44.0803 21.4803 43.0167L21.8602 42.7419Z" fill="#FFB8B8"/>
<path d="M15.8784 48.3908V49.6461L16.7708 49.5959L16.5229 48.2904L15.8784 48.3908Z" fill="#FFB8B8"/>
<path d="M20.8359 48.3908V49.6461L19.9435 49.5959L20.1914 48.2904L20.8359 48.3908Z" fill="#FFB8B8"/>
<path d="M18.1093 41.9135L19.4478 41.8633C22.5356 45.1419 21.3679 44.3941 21.2821 48.8928L19.6461 48.3907L19.9931 45.2776C19.9933 45.2775 20.0847 45.2158 20.0087 45.2144C19.5337 45.3797 19.1872 43.3329 18.1588 43.5705C16.9886 43.5138 16.7981 45.272 16.3246 45.2776L16.6716 48.3907L15.0356 48.8928C14.8524 43.9492 13.9547 45.066 16.8699 41.8633L18.1093 41.9135Z" fill="#2F2E41"/>
<path d="M16.1263 49.2443C16.1263 49.2443 15.928 48.8426 15.6801 49.0434C15.4322 49.2443 14.8373 49.8468 14.8373 49.8468C14.8373 49.8468 13.3996 50.4995 14.292 50.9012C15.1843 51.3029 15.928 50.3489 15.928 50.3489C16.7779 50.1694 17.2682 50.0545 16.8174 49.1155C16.5615 49.2276 16.1994 49.3575 16.1263 49.2443Z" fill="#2F2E41"/>
<path d="M20.588 49.2443C20.588 49.2443 20.7863 48.8426 21.0342 49.0434C21.2821 49.2443 21.877 49.8468 21.877 49.8468C21.877 49.8468 23.3146 50.4995 22.4223 50.9012C21.5299 51.3029 20.7863 50.3489 20.7863 50.3489C19.9364 50.1694 19.4461 50.0545 19.8969 49.1155C20.1528 49.2276 20.5149 49.3575 20.588 49.2443Z" fill="#2F2E41"/>
<path d="M19.4478 36.2397C19.374 37.4896 17.6897 37.3796 17.6631 36.2397C17.7368 34.9897 19.4211 35.0998 19.4478 36.2397Z" fill="#FFB8B8"/>
<path d="M18.1589 36.8925C18.5926 38.22 17.5686 37.4973 19.0016 38.5494L19.547 37.4448C19.547 37.4448 19.1504 37.2941 19.1999 36.7418L18.1589 36.8925Z" fill="#FFB8B8"/>
<path d="M20.8359 37.6457L19.3581 37.3041C19.3997 38.2066 18.4487 38.0249 18.2828 37.571L16.8699 38.3989C17.463 40.6359 17.3127 40.7282 16.5229 42.1647C16.2215 42.4435 16.6723 42.6032 17.0647 42.4507C17.364 42.2636 17.516 42.0973 17.8367 42.1397C19.3521 42.4592 20.6136 42.5347 20.8133 42.4098C20.8847 42.3062 20.8112 37.6637 20.8359 37.6457Z" fill="#575A89"/>
<path d="M20.4392 37.746C20.4888 37.746 20.7442 37.6244 20.7442 37.6244C21.4871 37.6117 21.9857 42.6735 22.0256 42.8173L21.5299 43.1688L20.7367 41.1102L20.4392 37.746Z" fill="#575A89"/>
<path d="M16.969 43.6207C16.9943 43.8102 17.0375 45.9382 17.7901 44.9442C17.8889 44.2189 17.5532 44.0024 17.4647 43.5203L16.969 43.6207Z" fill="#FFB8B8"/>
<path d="M17.1673 38.3986L17.0154 38.3134C16.6082 38.2998 16.7365 39.3916 16.5642 40.1912C16.4235 41.1226 16.4636 42.1497 16.6287 43.5229C16.6431 44.0268 17.5342 43.7093 17.6631 43.6708C17.6631 43.6708 17.3656 41.6122 17.5144 41.2607C17.6631 40.9092 17.1673 38.3986 17.1673 38.3986Z" fill="#575A89"/>
<path d="M19.4088 35.3635C19.2711 35.1371 19.0556 34.9702 18.8038 34.895L18.6188 35.0449L18.6907 34.8701C18.6302 34.8608 18.569 34.8572 18.5079 34.8594L18.3415 35.0761L18.4104 34.8668C17.6962 34.9445 17.2737 35.7748 17.6444 36.356C17.7016 36.1779 17.771 36.0109 17.8282 35.8329C17.8732 35.8391 17.9187 35.8393 17.9637 35.8336L18.0333 35.6691L18.0528 35.8266C18.2684 35.8076 18.5883 35.7658 18.7928 35.7275L18.7729 35.6067L18.8918 35.7071C18.9545 35.6925 18.9917 35.6793 18.9886 35.6691C19.1407 35.9174 19.2913 36.076 19.4434 36.3243C19.5011 35.9741 19.603 35.683 19.4088 35.3635Z" fill="#2F2E41"/>
<path d="M34.809 44.2401H30.4843V46.3179H34.809V44.2401Z" fill="white"/>
<path d="M33.9912 44.6754H31.3021V44.9246H33.9912V44.6754Z" fill="#E6E6E6"/>
<path d="M33.9912 45.1544H31.3021V45.4036H33.9912V45.1544Z" fill="#E6E6E6"/>
<path d="M33.9912 45.6337H31.3021V45.8828H33.9912V45.6337Z" fill="#E6E6E6"/>
<path d="M26.7182 44.7337L26.5775 44.4869L26.4369 44.2401L26.2962 44.4869L26.1555 44.7337H26.3067V45.4483H26.5671V44.7337H26.7182Z" fill="white"/>
<path d="M36.2501 49.8184C36.8898 49.8184 37.4084 49.2932 37.4084 48.6452C37.4084 47.9973 36.8898 47.472 36.2501 47.472C35.6104 47.472 35.0918 47.9973 35.0918 48.6452C35.0918 49.2932 35.6104 49.8184 36.2501 49.8184Z" fill="#3F3D56"/>
<path d="M36.4607 49.1652C36.7442 49.1652 36.974 48.9324 36.974 48.6453C36.974 48.3581 36.7442 48.1254 36.4607 48.1254C36.1772 48.1254 35.9473 48.3581 35.9473 48.6453C35.9473 48.9324 36.1772 49.1652 36.4607 49.1652Z" fill="#E6E6E6"/>
<path d="M35.5196 49.4652L38.0469 50.5317L37.9679 50.785L36.5134 50.6184L34.052 49.5119L35.4209 49.6719L35.5196 49.4652Z" fill="#3F3D56"/>
<path d="M37.7536 50.4836L40.8967 40.0407L41.6622 38.6639L41.6649 38.6506C41.6673 38.6385 41.7235 38.3507 41.5853 38.1423C41.5504 38.0905 41.5054 38.0465 41.4531 38.0131C41.4007 37.9797 41.3421 37.9576 41.2809 37.9481C40.8585 37.8679 39.9134 37.8284 39.8734 37.8267L39.8658 37.8264L39.8583 37.8275C39.8325 37.831 39.2285 37.9204 39.092 38.4546L38.4349 39.6659L38.4323 39.6745L35.4575 49.5799L35.6212 49.6303L38.5934 39.7336L39.2527 38.5182L39.2554 38.507C39.352 38.1051 39.8135 38.011 39.8749 38.0003C39.9715 38.0044 40.8597 38.0445 41.2494 38.1185C41.2881 38.1238 41.3252 38.1372 41.3586 38.1579C41.3919 38.1785 41.4206 38.2059 41.4429 38.2384C41.5281 38.3662 41.5068 38.5543 41.4992 38.6037L40.7385 39.9721L40.7358 39.9811L37.5899 50.4331L37.7536 50.4836Z" fill="#3F3D56"/>
<path d="M38.2131 40.6675L38.1827 40.838L40.4527 41.2533L40.4832 41.0827L38.2131 40.6675Z" fill="#3F3D56"/>
<path d="M37.7891 42.0858L37.7549 42.2556L40.0088 42.7215L40.043 42.5517L37.7891 42.0858Z" fill="#3F3D56"/>
<path d="M37.0342 44.6223L36.9871 44.7889L39.1876 45.4267L39.2347 45.26L37.0342 44.6223Z" fill="#3F3D56"/>
<path d="M38.5224 49.5392L38.5847 49.3778L36.4489 48.5308L36.344 47.3806L38.3375 48.1347L38.9833 49.0812L39.1241 48.9826L38.4477 47.9914L36.1486 47.1216L36.2882 48.6532L38.5224 49.5392Z" fill="#3F3D56"/>
<path d="M39.2644 50.9384C39.9041 50.9384 40.4227 50.4131 40.4227 49.7652C40.4227 49.1173 39.9041 48.592 39.2644 48.592C38.6247 48.592 38.1061 49.1173 38.1061 49.7652C38.1061 50.4131 38.6247 50.9384 39.2644 50.9384Z" fill="#3F3D56"/>
<path d="M39.5671 50.3383C39.8506 50.3383 40.0804 50.1055 40.0804 49.8184C40.0804 49.5312 39.8506 49.2985 39.5671 49.2985C39.2835 49.2985 39.0537 49.5312 39.0537 49.8184C39.0537 50.1055 39.2835 50.3383 39.5671 50.3383Z" fill="#E6E6E6"/>
</svg>
