<svg width="70" height="70" viewBox="0 0 70 70" fill="none" xmlns="http://www.w3.org/2000/svg">
<circle cx="35" cy="35" r="35" fill="#E4AF00" fill-opacity="0.1"/>
<path opacity="0.2" d="M52.3449 53.614C40.2368 53.614 31.9221 58.5 26.0877 58.5C20.2534 58.5 8 55.8872 8 34.9784C8 14.0696 24.4843 11 30.9015 11C60.952 11 73.7883 53.614 52.3449 53.614Z" fill="#E4AF00"/>
<path opacity="0.1" d="M60 48.8482C60 50.0436 58.7609 51.1623 56.5989 52.1257H15.7583C13.8686 52.1257 12.0989 51.442 10.5822 50.2498C10.2009 49.7975 10 49.3289 10 48.8477C10 47.5771 11.401 46.3911 13.8234 45.3887L13.8918 45.3614C14.5755 45.0811 15.3396 44.8165 16.1748 44.5678C16.1958 44.5615 16.2174 44.5557 16.2384 44.5483C16.9011 44.3537 17.606 44.1693 18.3531 43.9951C18.3768 43.9898 18.3999 43.984 18.4236 43.9798C18.7118 43.9114 19.0058 43.8478 19.3061 43.7842L19.4218 43.76C21.607 43.3066 24.0909 42.9469 26.7846 42.7029H26.7878C27.1651 42.6678 27.5464 42.6364 27.9317 42.6087C28.3603 42.5746 28.7942 42.5456 29.2328 42.5188C29.5678 42.4973 29.907 42.4788 30.2473 42.462C30.2485 42.4615 30.2499 42.4612 30.2512 42.4612C30.2526 42.4612 30.2539 42.4615 30.2552 42.462C31.7903 42.3847 33.3765 42.3442 34.9984 42.3442C39.0091 42.3442 42.7999 42.5903 46.1589 43.0279C46.162 43.0273 46.1652 43.0273 46.1684 43.0279C46.6848 43.0952 47.1918 43.1662 47.6862 43.2419C47.8276 43.264 47.9686 43.2861 48.1069 43.3087C48.6647 43.3988 49.2082 43.494 49.7373 43.5943C55.9589 44.7771 60 46.6909 60 48.8482Z" fill="#E4AF00"/>
<path d="M49.833 26.8196C49.833 26.8196 49.2765 26.594 47.5063 27.4055C45.7361 28.217 45.5152 28.1144 45.0571 27.9924C44.599 27.8704 44.3434 27.8389 43.8522 27.161C43.8522 27.161 43.5057 25.2829 43.1685 24.9915C42.8314 24.7002 41.4083 25.1577 41.4083 25.1577C41.4083 25.1577 39.6996 25.5495 39.3741 23.2644C39.3741 23.2644 39.6049 21.5436 39.2904 21.0156C39.2904 21.0156 39.9257 21.2891 40.9734 20.8473C42.021 20.4055 42.8598 21.3233 42.8598 21.3233C42.8598 21.3233 43.1228 22.007 43.0965 22.4151C43.0702 22.8232 43.2364 22.9762 43.736 22.779C43.736 22.779 43.9816 22.4298 43.634 21.8523C43.2864 21.2749 43.0381 20.8452 43.1349 20.3971C43.2317 19.949 43.5109 19.3269 44.4076 19.0161C45.3043 18.7053 46.5218 18.6479 47.1061 18.4023C47.6904 18.1567 47.8345 18 47.8345 18C47.8345 18 47.4748 18.3603 48.322 19.888C49.1693 21.4158 48.6291 22.0785 48.6291 22.0785C48.6291 22.0785 48.1784 23.1529 46.1884 23.0656C46.1884 23.0656 44.2709 23.1356 45.3164 23.9486C45.3164 23.9486 45.9859 23.8124 46.9867 23.4943C47.9875 23.1761 48.7101 24.4893 48.8895 25.4028C49.0688 26.3163 49.833 26.8196 49.833 26.8196Z" fill="#E4AF00"/>
<path d="M47.2554 19.157L47.266 19.1539C47.3427 19.4452 46.486 20.617 45.7534 21.5484L45.745 21.5415C46.7779 20.2299 47.3149 19.3826 47.2554 19.157Z" fill="#444053"/>
<path d="M45.7598 21.5236L45.7645 21.5352C45.1792 22.2788 44.4434 23.1655 43.8544 23.8245C43.7981 23.8871 43.7423 23.9528 43.6887 24.0201L43.6719 24.0065C43.7245 23.9392 43.7818 23.8729 43.8381 23.8103C44.4266 23.154 45.1739 22.2678 45.7598 21.5236Z" fill="#444053"/>
<path d="M43.6861 23.9896L43.6976 24.0096C42.6258 25.3481 42.5548 27.4281 42.5522 27.4444L42.326 27.1814C42.3287 27.1646 42.6069 25.3375 43.6861 23.9896Z" fill="#444053"/>
<path d="M48.5923 26.0939C48.5923 26.0939 47.3301 25.4365 46.3435 25.6732C45.3568 25.9099 43.138 24.837 43.138 24.837C43.138 24.837 42.1966 24.4547 42.0073 24.0187C42.0073 24.0187 41.3609 23.335 41.3236 22.9821C41.2862 22.6292 40.6578 21.7399 40.2476 21.7057" stroke="#444053" stroke-miterlimit="10"/>
<path d="M48.4067 26.7266C48.4067 26.7266 47.7703 26.2974 47.8445 25.7978" stroke="#444053" stroke-miterlimit="10"/>
<path d="M47.4305 27.2804C47.4305 27.2804 46.5202 26.9502 46.4313 25.6543" stroke="#444053" stroke-miterlimit="10"/>
<path d="M45.9627 27.6158C45.9627 27.6158 45.0929 26.8943 45.3816 25.6331" stroke="#444053" stroke-miterlimit="10"/>
<path d="M44.1962 27.2636C44.1962 27.2636 43.6176 26.0487 44.1325 25.2582" stroke="#444053" stroke-miterlimit="10"/>
<path d="M48.6044 25.2928C48.6044 25.2928 47.9465 25.5032 48.0875 25.8482" stroke="#444053" stroke-miterlimit="10"/>
<path d="M47.8103 24.1006C47.8103 24.1006 46.9294 24.3798 46.9088 25.6257" stroke="#444053" stroke-miterlimit="10"/>
<path d="M46.5818 23.8103C46.5818 23.8103 45.7797 24.8001 45.8386 25.6994" stroke="#444053" stroke-miterlimit="10"/>
<path d="M45.1776 24.1984C45.1776 24.1984 44.3813 24.96 44.4828 25.3833" stroke="#444053" stroke-miterlimit="10"/>
<path d="M44.6973 23.9297C44.6973 23.9297 43.9505 24.0633 43.8459 23.8182" stroke="#444053" stroke-miterlimit="10"/>
<path d="M43.7271 23.0283C43.7271 23.0283 44.1042 23.5279 44.2004 23.4159" stroke="#444053" stroke-miterlimit="10"/>
<path d="M47.4674 22.7123C47.4674 22.7123 45.5846 22.849 45.1586 22.281" stroke="#444053" stroke-miterlimit="10"/>
<path d="M43.3332 20.5101C43.3332 20.5101 44.2162 22.4061 44.8583 22.6475" stroke="#444053" stroke-miterlimit="10"/>
<path d="M44.2577 19.6072C44.2577 19.6072 44.7999 21.3511 45.472 21.8954" stroke="#444053" stroke-miterlimit="10"/>
<path d="M48.2594 21.2727C48.2594 21.2727 46.8279 21.887 45.9685 21.2654" stroke="#444053" stroke-width="0.75" stroke-miterlimit="10"/>
<path d="M45.5325 19.2354C45.5325 19.2354 45.8597 20.517 46.3004 20.8268" stroke="#444053" stroke-width="0.75" stroke-miterlimit="10"/>
<path d="M48.0433 19.8365C48.0433 19.8365 47.2386 20.1416 46.9388 19.9081" stroke="#444053" stroke-width="0.75" stroke-miterlimit="10"/>
<path d="M43.0376 23.4469C43.0376 23.4469 43.0376 24.5645 42.7336 24.6439" stroke="#444053" stroke-miterlimit="10"/>
<path d="M40.5505 24.8947C40.5505 24.8947 41.7601 24.9999 42.316 24.3746" stroke="#444053" stroke-miterlimit="10"/>
<path d="M42.7262 22.1268C42.7262 22.1268 42.4338 23.2602 41.627 23.5657" stroke="#444053" stroke-miterlimit="10"/>
<path d="M39.8258 23.701C39.8258 23.701 40.6809 23.9981 41.4167 23.2413" stroke="#444053" stroke-miterlimit="10"/>
<path d="M41.7749 21.1523C41.7749 21.1523 41.6944 22.1148 41.1711 22.5655" stroke="#444053" stroke-miterlimit="10"/>
<path d="M39.8584 22.2342C39.8584 22.2342 40.5679 22.2389 40.7341 22.0075" stroke="#444053" stroke-miterlimit="10"/>
<path d="M44.9898 25.8887H24.7841V36.0884H44.9898V25.8887Z" fill="#33323D"/>
<path d="M51.3481 39.1871H18.4899V45.901H51.3481V39.1871Z" fill="#33323D"/>
<path d="M26.3334 40.8653H43.1822L46.5391 52.1625H22.7829L26.3334 40.8653Z" fill="white"/>
<path d="M17.5537 35.1843V38.6706V39.4048V45.9004H23.8479V39.7035H45.9901V45.9004H52.2843V39.4048V38.6706V35.1843H17.5537Z" fill="#504F60"/>
<path opacity="0.1" d="M52.2843 35.1843H17.5537V38.6701H52.2843V35.1843Z" fill="#33323D"/>
<path opacity="0.8" d="M50.4125 37.4442C50.6977 37.4442 50.929 37.2129 50.929 36.9277C50.929 36.6425 50.6977 36.4113 50.4125 36.4113C50.1273 36.4113 49.8961 36.6425 49.8961 36.9277C49.8961 37.2129 50.1273 37.4442 50.4125 37.4442Z" fill="#8CCF4D"/>
<path opacity="0.8" d="M48.0885 37.4442C48.3737 37.4442 48.605 37.2129 48.605 36.9277C48.605 36.6425 48.3737 36.4113 48.0885 36.4113C47.8033 36.4113 47.5721 36.6425 47.5721 36.9277C47.5721 37.2129 47.8033 37.4442 48.0885 37.4442Z" fill="#FA5959"/>
<path d="M44.2477 23.4354H25.5267V34.5386H44.2477V23.4354Z" fill="white"/>
<path d="M47.0956 39.641C47.135 40.0707 46.8105 40.4877 46.9052 40.9085C46.9252 40.9984 46.9641 41.0836 46.9783 41.1714C47.0172 41.4212 46.8684 41.6579 46.7259 41.8672L45.5041 43.6648C45.4551 43.7437 45.3965 43.8161 45.3295 43.8804C45.0955 44.0908 44.7452 44.0666 44.4386 44.1287C44.2231 44.1724 44.0195 44.2621 43.8417 44.3916C43.834 44.3978 43.8289 44.4066 43.8274 44.4164C43.8259 44.4261 43.8282 44.4361 43.8338 44.4442C43.8844 44.5136 43.9515 44.5691 44.029 44.6059C44.1065 44.6426 44.192 44.6594 44.2777 44.6546C44.3098 44.6967 44.2777 44.7598 44.2335 44.7892C44.1678 44.8344 44.0758 44.8465 44.0647 44.958C44.0601 44.9968 44.0678 45.036 44.0868 45.0701C44.1362 45.1454 44.213 45.1985 44.3008 45.2184C44.7216 45.3477 45.1807 45.1205 45.4973 44.8113C45.8139 44.5021 46.0411 44.1118 46.3519 43.7968C46.5239 43.6227 46.7201 43.4734 46.8968 43.3046C47.2502 42.968 47.5279 42.5583 47.7908 42.1475C47.8777 42.0284 47.9432 41.8951 47.9844 41.7536C48.017 41.6137 48.0023 41.4659 48.0401 41.3271C48.0896 41.1457 48.2226 41.001 48.3331 40.8485C48.5503 40.5498 48.6949 40.1848 48.666 39.8167C48.637 39.4485 48.4098 39.0862 48.0627 38.961C47.9551 38.9181 47.8366 38.911 47.7246 38.9405C47.582 38.9841 47.4774 39.1019 47.3801 39.2145L47.1482 39.4822C47.0904 39.5414 47.0445 39.6113 47.013 39.6878C46.9981 39.7264 46.9946 39.7685 47.0031 39.809C47.0116 39.8495 47.0317 39.8867 47.0609 39.9161" fill="#FBBEBE"/>
<path opacity="0.05" d="M47.0956 39.641C47.135 40.0707 46.8105 40.4877 46.9052 40.9085C46.9252 40.9984 46.9641 41.0836 46.9783 41.1714C47.0172 41.4212 46.8684 41.6579 46.7259 41.8672L45.5041 43.6648C45.4551 43.7437 45.3965 43.8161 45.3295 43.8804C45.0955 44.0908 44.7452 44.0666 44.4386 44.1287C44.2231 44.1724 44.0195 44.2621 43.8417 44.3916C43.834 44.3978 43.8289 44.4066 43.8274 44.4164C43.8259 44.4261 43.8282 44.4361 43.8338 44.4442C43.8844 44.5136 43.9515 44.5691 44.029 44.6059C44.1065 44.6426 44.192 44.6594 44.2777 44.6546C44.3098 44.6967 44.2777 44.7598 44.2335 44.7892C44.1678 44.8344 44.0758 44.8465 44.0647 44.958C44.0601 44.9968 44.0678 45.036 44.0868 45.0701C44.1362 45.1454 44.213 45.1985 44.3008 45.2184C44.7216 45.3477 45.1807 45.1205 45.4973 44.8113C45.8139 44.5021 46.0411 44.1118 46.3519 43.7968C46.5239 43.6227 46.7201 43.4734 46.8968 43.3046C47.2502 42.968 47.5279 42.5583 47.7908 42.1475C47.8777 42.0284 47.9432 41.8951 47.9844 41.7536C48.017 41.6137 48.0023 41.4659 48.0401 41.3271C48.0896 41.1457 48.2226 41.001 48.3331 40.8485C48.5503 40.5498 48.6949 40.1848 48.666 39.8167C48.637 39.4485 48.4098 39.0862 48.0627 38.961C47.9551 38.9181 47.8366 38.911 47.7246 38.9405C47.582 38.9841 47.4774 39.1019 47.3801 39.2145L47.1482 39.4822C47.0904 39.5414 47.0445 39.6113 47.013 39.6878C46.9981 39.7264 46.9946 39.7685 47.0031 39.809C47.0116 39.8495 47.0317 39.8867 47.0609 39.9161" fill="black"/>
<path d="M48.0207 50.7004C47.7535 50.8629 47.4211 50.8735 47.1108 50.8351C47.0582 50.8293 47.002 50.8256 46.9699 50.864C46.9236 50.9203 46.9783 51.0023 47.0346 51.0475C47.2179 51.1848 47.4331 51.2733 47.6599 51.3047C47.8623 51.333 48.0666 51.3465 48.271 51.3452C48.8285 51.3547 49.3891 51.3641 49.9413 51.2837C49.9732 51.2813 50.0042 51.2721 50.0323 51.2569C50.068 51.232 50.0926 51.1943 50.1012 51.1517C50.1396 51.0086 50.0665 50.854 49.9566 50.7546C49.8467 50.6552 49.7052 50.5995 49.5669 50.5442L49.082 50.3554C48.9678 50.3107 48.7854 50.1934 48.6612 50.2024C48.4346 50.2208 48.2132 50.5879 48.0207 50.7004Z" fill="#3F3D56"/>
<path opacity="0.05" d="M48.0207 50.7004C47.7535 50.8629 47.4211 50.8735 47.1108 50.8351C47.0582 50.8293 47.002 50.8256 46.9699 50.864C46.9236 50.9203 46.9783 51.0023 47.0346 51.0475C47.2179 51.1848 47.4331 51.2733 47.6599 51.3047C47.8623 51.333 48.0666 51.3465 48.271 51.3452C48.8285 51.3547 49.3891 51.3641 49.9413 51.2837C49.9732 51.2813 50.0042 51.2721 50.0323 51.2569C50.068 51.232 50.0926 51.1943 50.1012 51.1517C50.1396 51.0086 50.0665 50.854 49.9566 50.7546C49.8467 50.6552 49.7052 50.5995 49.5669 50.5442L49.082 50.3554C48.9678 50.3107 48.7854 50.1934 48.6612 50.2024C48.4346 50.2208 48.2132 50.5879 48.0207 50.7004Z" fill="black"/>
<path d="M48.3588 44.2606C48.1574 44.5294 47.9481 44.8391 47.998 45.172C48.0249 45.3514 48.1253 45.5097 48.199 45.6754C48.2911 45.9033 48.3593 46.1402 48.4025 46.3822C48.4782 46.734 48.5539 47.0869 48.6002 47.444C48.6528 47.8474 48.4056 49.0144 48.3825 49.4209C48.3767 49.5188 48.3657 49.625 48.2973 49.6955C48.2705 49.7233 48.2347 49.7481 48.2231 49.7822C48.2158 49.817 48.2214 49.8533 48.2389 49.8843C48.353 50.1414 48.586 50.3323 48.8448 50.4417C49.1035 50.5511 49.7331 50.7389 50.0139 50.7489C50.0512 50.7534 50.089 50.7483 50.1238 50.7341C50.1617 50.7115 50.1915 50.6774 50.209 50.6369C50.412 50.2493 50.2169 48.8692 50.22 48.4312C50.22 48.063 50.3089 47.7033 50.2932 47.3383C50.28 47.0454 50.2016 46.7598 50.1732 46.4674C50.1264 45.9883 50.2143 45.5076 50.3026 45.0343C50.3699 44.6719 50.4373 44.309 50.5235 43.9503C50.5761 43.7321 50.6371 43.5112 50.7575 43.3192C50.8527 43.1683 50.9821 43.0426 51.091 42.8985C51.3927 42.503 51.5266 42.0046 51.4638 41.5111C51.4575 41.4628 50.7633 41.6873 50.7028 41.7136C50.4537 41.8196 50.2245 41.9672 50.0249 42.1501C49.8672 42.3026 49.7383 42.5072 49.5974 42.6787C49.3986 42.9206 49.2024 43.1644 49.0089 43.4102C48.789 43.6925 48.5724 43.9759 48.3588 44.2606Z" fill="#464353"/>
<path opacity="0.05" d="M48.3588 44.2433C48.1574 44.512 47.9481 44.8218 47.998 45.1552C48.0249 45.334 48.1253 45.4923 48.199 45.658C48.2911 45.8859 48.3593 46.1228 48.4025 46.3648C48.4782 46.7167 48.5539 47.0695 48.6002 47.4266C48.6528 47.83 48.4056 48.9976 48.3825 49.4041C48.3767 49.5014 48.3657 49.6082 48.2973 49.6781C48.2705 49.706 48.2347 49.7307 48.2231 49.7649C48.2152 49.8007 48.2208 49.8382 48.2389 49.8701C48.353 50.1267 48.586 50.3181 48.8448 50.427C49.1035 50.5359 49.7331 50.6374 50.0139 50.6463C50.0512 50.6508 50.089 50.6457 50.1238 50.6316C50.1617 50.6089 50.1915 50.5749 50.209 50.5343C50.412 50.1467 50.2169 48.8545 50.22 48.4169C50.22 48.0488 50.3089 47.6886 50.2932 47.3236C50.28 47.0306 50.2016 46.7451 50.1732 46.4526C50.1264 45.9735 50.2143 45.4928 50.3026 45.02C50.3699 44.6572 50.4373 44.2943 50.5235 43.9356C50.5761 43.7174 50.6371 43.4965 50.7575 43.3045C50.8527 43.1541 50.9821 43.0279 51.091 42.8869C51.3923 42.4912 51.5262 41.993 51.4638 41.4996C51.4575 41.4506 50.7633 41.6752 50.7028 41.702C50.4535 41.8081 50.2242 41.9561 50.0249 42.1396C49.8672 42.2926 49.7383 42.4967 49.5974 42.6655C49.3986 42.9074 49.2024 43.1515 49.0089 43.3976C48.789 43.6781 48.5724 43.96 48.3588 44.2433Z" fill="black"/>
<path d="M46.1137 38.3436C46.739 38.3436 47.246 37.8366 47.246 37.2113C47.246 36.5859 46.739 36.079 46.1137 36.079C45.4883 36.079 44.9814 36.5859 44.9814 37.2113C44.9814 37.8366 45.4883 38.3436 46.1137 38.3436Z" fill="#FBBEBE"/>
<path d="M47.1329 37.164C47.2375 37.331 47.3746 37.4752 47.536 37.5881C47.6975 37.7011 47.88 37.7804 48.0727 37.8214L47.9875 38.1301C47.8403 38.6628 47.672 39.2261 47.2633 39.5953C47.308 39.4149 47.2502 39.2208 47.1481 39.0657C47.039 38.9147 46.9097 38.7795 46.7637 38.6639L46.1121 38.0969C46.0927 38.0826 46.0761 38.0648 46.0632 38.0443C46.0474 38.0045 46.0474 37.9601 46.0632 37.9202C46.1463 37.662 46.3835 37.4995 46.5754 37.3259C46.672 37.2355 46.7584 37.1348 46.8331 37.0256C46.9667 36.84 47.0472 37.0256 47.1329 37.164Z" fill="#FBBEBE"/>
<path d="M44.6216 36.0731L44.5964 35.8627C44.7752 35.909 44.9445 35.7576 45.0587 35.5998C45.1728 35.442 45.279 35.2569 45.4531 35.1917C45.6635 35.1117 45.8886 35.2395 46.0905 35.3447C46.3169 35.4707 46.5655 35.552 46.8226 35.584C46.8636 35.5854 46.9043 35.5921 46.9436 35.604C47.075 35.6508 47.1376 35.8144 47.1566 35.9653C47.1755 36.1162 47.1702 36.274 47.2354 36.4076C47.2844 36.5086 47.369 36.5838 47.4206 36.6832C47.5589 36.9514 47.4253 37.3174 47.5715 37.5804L47.2086 37.2475C47.175 37.217 47.1282 37.1854 47.0919 37.2112C47.0556 37.237 47.0608 37.2759 47.0487 37.3111C47.0135 37.4163 46.8847 37.4458 46.7905 37.4053C46.6964 37.3648 46.6285 37.2754 46.5596 37.1949C46.3992 37.0056 46.2083 36.8394 45.9811 36.7584C45.8828 36.7207 45.7776 36.7044 45.6724 36.7107C45.5673 36.7169 45.4647 36.7456 45.3716 36.7947C45.2022 36.8904 45.0781 37.1134 44.8709 37.1213C44.5864 37.1318 44.4681 36.6022 44.3361 36.3929C44.3841 36.3565 44.4179 36.3044 44.4316 36.2457C44.4452 36.187 44.4378 36.1254 44.4107 36.0715C44.4339 36.0626 44.618 36.0389 44.6216 36.0731Z" fill="#464353"/>
<path d="M49.3412 50.6915C49.1174 50.8911 48.8269 50.9994 48.5271 50.995C48.4508 50.995 48.3451 51.0097 48.3446 51.086C48.3459 51.1087 48.3536 51.1305 48.3667 51.1491C48.4617 51.3068 48.6115 51.4241 48.7874 51.4783C48.9505 51.5277 49.1251 51.5193 49.2955 51.5109L49.7925 51.4851C49.8861 51.4799 49.9802 51.4751 50.0738 51.4636C50.1674 51.452 50.2684 51.4325 50.3662 51.4184C50.6058 51.3841 50.8481 51.3726 51.0899 51.3842C51.1541 51.3868 51.2282 51.3842 51.2682 51.3358C51.3081 51.2874 51.2866 51.2001 51.2719 51.1301C51.2424 50.986 51.2719 50.8351 51.2445 50.6905C51.1967 50.4365 50.9784 50.2424 50.7375 50.1504C50.514 50.0652 50.1175 49.9679 49.9055 50.1093C49.6783 50.2619 49.5416 50.5101 49.3412 50.6915Z" fill="#3F3D56"/>
<path d="M49.8335 42.1922C49.8777 42.4025 50.0791 42.5603 50.0854 42.7707C50.0901 42.9411 49.9681 43.0862 49.8808 43.2309C49.7974 43.3824 49.727 43.5407 49.6705 43.7042C49.5045 44.1285 49.2988 44.5361 49.0562 44.9217C48.9394 45.1063 48.809 45.3072 48.8358 45.5244C48.8542 45.6258 48.8898 45.7232 48.941 45.8126L49.2907 46.5073C49.3676 46.6461 49.4276 46.7935 49.4696 46.9465C49.4995 47.0785 49.5027 47.2152 49.5221 47.3498C49.5774 47.7758 49.7772 48.205 49.6594 48.6178C49.6489 48.6536 49.6121 48.6967 49.5842 48.6704C49.6994 48.886 49.7946 49.1038 49.7835 49.3483C49.7788 49.4767 49.7393 49.6113 49.7872 49.7301C49.8143 49.7764 49.8321 49.8275 49.8398 49.8806C49.8398 49.9153 49.8235 49.9484 49.8198 49.9857C49.8103 50.0841 49.9003 50.1661 49.9944 50.1961C50.0886 50.2261 50.1901 50.225 50.2847 50.2534C50.4672 50.306 50.5966 50.4638 50.7528 50.5732C50.911 50.6829 51.0978 50.7438 51.2903 50.7483C51.3176 50.7512 51.3451 50.7457 51.3692 50.7325C51.383 50.7206 51.394 50.7058 51.4016 50.6892C51.4093 50.6726 51.4133 50.6546 51.4133 50.6363C51.4217 50.5492 51.4086 50.4614 51.375 50.3806C51.3414 50.2998 51.2885 50.2285 51.2209 50.173C51.1915 50.1542 51.1671 50.1286 51.1499 50.0983C51.141 50.0714 51.1386 50.0427 51.143 50.0147C51.1714 49.6323 51.1646 49.2482 51.1225 48.8671C51.1035 48.7464 51.0974 48.6241 51.1041 48.5021C51.1146 48.4006 51.1451 48.2997 51.1336 48.1982C51.122 48.0966 51.071 48.0051 51.0405 47.9073C50.9879 47.7338 51.0015 47.5476 50.9958 47.3656C50.9863 47.0501 50.9142 46.7408 50.8422 46.4337C50.8143 46.3133 50.7828 46.1865 50.697 46.0971C50.6245 46.0214 50.5072 45.9483 50.5345 45.8473C50.5495 45.8099 50.572 45.7761 50.6008 45.7479C50.6347 45.7055 50.6596 45.6566 50.674 45.6043C50.6884 45.5519 50.6919 45.4972 50.6844 45.4434C50.7152 45.4516 50.7478 45.4487 50.7767 45.4352C50.8055 45.4218 50.8287 45.3986 50.8422 45.3698C51.4107 45.1021 51.8704 44.5656 52.0728 43.9703C52.0842 43.9264 52.1019 43.8844 52.1254 43.8457C52.178 43.772 52.2695 43.7405 52.3505 43.6995C52.6051 43.5717 52.7812 43.3313 52.9427 43.0962C53.0368 42.9595 53.1305 42.8185 53.171 42.6581C53.1931 42.5544 53.2037 42.4486 53.2025 42.3426L53.2167 41.7946C53.2196 41.7592 53.216 41.7235 53.2062 41.6894C53.1928 41.6567 53.1727 41.6271 53.1473 41.6026C52.9931 41.4384 52.7904 41.3278 52.5688 41.2871C52.4194 41.2602 52.2669 41.2655 52.116 41.2529C51.823 41.2287 51.5338 41.1382 51.2408 41.1593C50.7801 41.1929 50.3704 41.5122 50.1532 41.9198C50.077 42.0654 49.997 42.1922 49.8335 42.1922Z" fill="#464353"/>
<path d="M47.2775 38.6286C47.2842 38.7131 47.2729 38.798 47.2444 38.8778C47.2086 38.9546 47.1182 39.0141 47.0398 38.983C47.0635 38.9304 47.0003 38.8679 46.942 38.8747C46.9131 38.8811 46.8862 38.8945 46.8637 38.9136C46.8411 38.9328 46.8236 38.9572 46.8126 38.9846C46.7734 39.0628 46.7603 39.1514 46.7753 39.2376C46.7937 39.3428 46.8557 39.4479 46.8394 39.5531C46.8263 39.6425 46.7605 39.7319 46.7958 39.8161C46.8184 39.8539 46.8468 39.888 46.8799 39.9171C46.9261 39.9737 46.9488 40.046 46.9432 40.119C46.9376 40.1919 46.9042 40.2599 46.8499 40.3089L47.7324 40.3262C47.7003 40.474 47.7661 40.6249 47.8418 40.7559C48.0537 41.1158 48.3461 41.4218 48.696 41.6499C49.0459 41.878 49.4439 42.022 49.8587 42.0707C49.8363 42.0839 49.8171 42.1019 49.8025 42.1234C49.7879 42.145 49.7783 42.1694 49.7743 42.1951C49.7702 42.2208 49.7719 42.2471 49.7793 42.272C49.7866 42.297 49.7994 42.32 49.8166 42.3394C49.8882 42.4104 50.0096 42.4015 50.0996 42.3552C50.1895 42.3089 50.2605 42.2327 50.3426 42.1738C50.4873 42.0706 50.6642 42.0229 50.8411 42.0391C50.9516 42.0497 51.0589 42.0854 51.1698 42.0917C51.4969 42.1091 51.7778 41.874 52.0907 41.7762C52.32 41.7057 52.5793 41.7057 52.7744 41.5627C52.8575 41.5011 52.9253 41.4001 52.9011 41.2997C52.8806 41.242 52.8482 41.1894 52.8059 41.1451C52.695 41.002 52.6298 40.8295 52.5509 40.667C52.3935 40.3449 52.1771 40.0552 51.9129 39.8129C51.7139 39.6385 51.503 39.4781 51.2818 39.3328C51.228 39.2926 51.1706 39.2574 51.1104 39.2276C51.0301 39.2014 50.9517 39.1696 50.8758 39.1324C50.7706 39.0672 50.7123 38.952 50.6329 38.8589C50.4577 38.6549 50.189 38.5607 49.9734 38.4003C49.8287 38.2951 49.7015 38.151 49.5284 38.099C49.4448 38.0737 49.3554 38.0716 49.2713 38.0464C49.0809 37.9885 48.942 37.8192 48.7548 37.7508C48.6065 37.6982 48.4435 37.7108 48.2867 37.6914C48.1144 37.67 47.9496 37.6074 47.8066 37.5089C47.7591 37.4706 47.7058 37.4401 47.6488 37.4184C47.4127 37.3464 47.3932 37.7866 47.3711 37.9396C47.3359 38.1736 47.2775 38.3987 47.2775 38.6286Z" fill="#E4AF00"/>
<path d="M47.5079 40.1064C47.5473 40.5361 47.2228 40.9526 47.3175 41.3739C47.3375 41.4638 47.3764 41.549 47.3906 41.6368C47.43 41.8866 47.2807 42.1233 47.1381 42.3321L45.9164 44.1255C45.8674 44.2043 45.8088 44.2768 45.7418 44.3411C45.5078 44.5515 45.1575 44.5273 44.8509 44.5893C44.6354 44.6331 44.4318 44.7228 44.254 44.8523C44.2463 44.8584 44.2412 44.8673 44.2397 44.877C44.2382 44.8868 44.2405 44.8967 44.2461 44.9049C44.2966 44.9743 44.3636 45.03 44.4412 45.0667C44.5188 45.1035 44.6043 45.1202 44.69 45.1152C44.7221 45.1578 44.69 45.2204 44.6458 45.2499C44.5801 45.2956 44.4881 45.3077 44.477 45.4192C44.4724 45.458 44.4801 45.4972 44.4991 45.5312C44.5487 45.6064 44.6254 45.6595 44.7131 45.6796C45.1339 45.8089 45.593 45.5817 45.9096 45.2725C46.2262 44.9633 46.4534 44.573 46.7647 44.258C46.9367 44.0839 47.1329 43.9346 47.3091 43.7657C47.663 43.4291 47.9375 43.0195 48.2031 42.6087C48.2899 42.4896 48.3553 42.3563 48.3967 42.2148C48.4293 42.0749 48.4145 41.9271 48.4524 41.7883C48.5019 41.6068 48.6349 41.4617 48.7453 41.3097C48.9626 41.011 49.1072 40.646 49.0783 40.2779C49.0493 39.9097 48.8221 39.5474 48.475 39.4222C48.3675 39.3791 48.2489 39.3719 48.1369 39.4017C47.9949 39.4453 47.8897 39.5631 47.7924 39.6757L47.5605 39.9434C47.5026 40.0025 47.4569 40.0724 47.4258 40.149C47.4108 40.1875 47.4073 40.2295 47.4157 40.2699C47.4241 40.3103 47.444 40.3474 47.4732 40.3767" fill="#FBBEBE"/>
<path d="M48.1263 38.341C47.9654 38.3504 47.7887 38.3662 47.6751 38.4809C47.6278 38.5335 47.5894 38.5936 47.5615 38.6586C47.4516 38.8832 47.3443 39.1178 47.3364 39.3676C47.3296 39.5674 47.389 39.7625 47.4179 39.9603C47.4432 40.1244 47.379 40.2916 47.3653 40.4578C47.5647 40.3968 47.8276 40.3137 48.0085 40.2106C48.1271 40.133 48.253 40.0675 48.3846 40.015C48.5765 39.9513 48.8989 40.0607 49.0798 40.1507C49.0898 40.0223 48.9941 39.7999 49.0041 39.6715C49.0057 39.6178 49.0153 39.5647 49.0325 39.5138C49.0597 39.4599 49.092 39.4086 49.1287 39.3607C49.1985 39.2478 49.2306 39.1157 49.2205 38.9834C49.2104 38.8511 49.1586 38.7254 49.0725 38.6244C48.911 38.4425 48.6575 38.3741 48.4161 38.3462C48.264 38.3285 48.1106 38.323 47.9575 38.3299" fill="#E4AF00"/>
<path d="M24.2997 34.6616L23.2626 33.1575C23.2626 33.1575 23.2431 32.7852 23.1753 32.6984C23.1074 32.6116 23.1605 32.4181 23.1605 32.4181C23.1605 32.4181 23.2336 32.3129 23.1705 32.3018C23.1074 32.2908 23.1605 32.0552 23.1605 32.0552L23.1558 31.6781C23.1558 31.6781 23.2142 31.3152 23.1658 31.2284C23.1515 31.2049 23.1444 31.1777 23.1452 31.1502C23.146 31.1226 23.1548 31.0959 23.1705 31.0733C23.1705 31.0733 23.2284 30.8656 23.1705 30.8103C23.1127 30.7551 23.1269 30.4333 23.1411 30.1766C23.1553 29.92 23.0396 29.7753 23.0396 29.7369C23.0396 29.6986 22.6567 29.3209 22.6567 29.2868C22.6567 29.2526 22.4143 29.1127 22.2686 29.0764C22.1229 29.0401 22.0509 29.0085 22.0556 28.9891C22.0603 28.9696 21.8279 28.8928 21.8279 28.8928C21.8279 28.8928 21.6243 28.8781 21.5465 28.7766C21.4687 28.6751 21.2309 28.6457 21.2252 28.6446L21.2204 28.6246C21.2204 28.6173 21.2178 28.6099 21.2162 28.6025C21.2354 28.5719 21.253 28.5403 21.2688 28.5079L21.2825 28.4784C21.3677 28.479 21.4509 28.4531 21.5207 28.4043C21.5551 28.3758 21.5832 28.3404 21.6032 28.3005C21.6232 28.2606 21.6347 28.2169 21.637 28.1723C21.6411 28.0829 21.6215 27.994 21.5802 27.9146C21.5376 27.8279 21.475 27.7374 21.4971 27.6427C21.5065 27.6022 21.5307 27.5665 21.5433 27.5265C21.5622 27.4485 21.5497 27.3662 21.5086 27.2972C21.4718 27.2273 21.4208 27.1652 21.3798 27.0974C21.3278 27.0105 21.2929 26.9144 21.2772 26.8144C21.2743 26.7612 21.2616 26.709 21.2399 26.6603C21.2179 26.626 21.1888 26.5968 21.1547 26.5746C21.0029 26.4663 20.8198 26.4109 20.6335 26.4168C20.5015 26.421 20.3705 26.4568 20.2391 26.4405C20.1607 26.427 20.0837 26.407 20.0087 26.3805C19.8462 26.3322 19.6585 26.3127 19.517 26.4058C19.3755 26.4989 19.3192 26.6819 19.223 26.8265C19.1383 26.9527 19.0126 27.059 18.9495 27.1947C18.9495 27.1947 18.9495 27.1894 18.9495 27.1873C18.9336 27.2182 18.9215 27.2508 18.9132 27.2846C18.8952 27.3917 18.9026 27.5016 18.9348 27.6054C18.9419 27.6613 18.9699 27.7124 19.0132 27.7485C19.061 27.7795 19.1268 27.7721 19.1825 27.7821L19.1762 27.8095C19.1194 28.0813 19.1669 28.3646 19.3093 28.6031C19.4516 28.8415 19.6783 29.0178 19.9446 29.0969C19.9446 29.1069 19.9446 29.1164 19.9446 29.1264C19.9444 29.1541 19.9427 29.1819 19.9393 29.2094C19.9393 29.2094 19.4518 29.109 19.3208 29.1768C19.1899 29.2447 18.9332 29.2978 18.8943 29.3346C18.8554 29.3714 18.7586 29.3446 18.6713 29.5718C18.584 29.799 18.5745 30.0309 18.4609 30.1377C18.3473 30.2445 18.2916 30.3165 18.2863 30.3938C18.2811 30.4711 18.3011 30.4906 18.2574 30.5148C18.2138 30.539 18.1522 30.6405 18.1701 30.6794C18.1768 30.706 18.1754 30.734 18.166 30.7598C18.1566 30.7855 18.1397 30.8079 18.1175 30.824C18.0945 30.8402 18.0762 30.8621 18.0642 30.8875C18.0523 30.913 18.0473 30.9412 18.0497 30.9692C18.0497 30.9692 18.0202 31.0744 17.9524 31.1001C17.8845 31.1259 17.8409 31.2837 17.8409 31.2837L17.6211 31.5361L17.1856 31.0544C17.1529 31.0184 17.1073 30.9968 17.0587 30.9943C17.0101 30.9918 16.9625 31.0087 16.9263 31.0412L16.7123 31.2337C16.6298 31.2537 16.5552 31.2981 16.4982 31.361C16.4518 31.4091 16.4143 31.465 16.3873 31.5261L16.2705 31.6313C16.2336 31.677 16.211 31.7326 16.2056 31.791C16.2002 31.8495 16.2121 31.9083 16.24 31.96L16.5193 32.2687V32.2713C16.4203 32.28 16.3263 32.3183 16.2495 32.3813C15.8329 32.7494 15.8287 33.0876 15.8908 33.2422C15.9528 33.3968 16.4819 33.9916 16.4819 33.9916C16.4819 33.9916 16.7891 34.3908 17.2324 34.6027L17.2292 34.6064C17.2201 34.6159 17.2115 34.6259 17.2035 34.6364L17.1961 34.6459L17.1893 34.6553L17.1814 34.6669C17.1793 34.6699 17.1773 34.6731 17.1756 34.6764L17.1672 34.69C17.1652 34.6931 17.1635 34.6962 17.1619 34.6995C17.1582 34.7058 17.1551 34.7121 17.1519 34.7184C17.1508 34.7205 17.1497 34.7226 17.1488 34.7247C17.1446 34.7332 17.1404 34.7416 17.1367 34.751L17.1325 34.7605C17.1298 34.7668 17.1277 34.7731 17.1251 34.78C17.1235 34.7841 17.1221 34.7883 17.1209 34.7926L17.1146 34.8115C17.1129 34.816 17.1115 34.8205 17.1104 34.8252C17.1104 34.832 17.1062 34.8389 17.1046 34.8462C17.103 34.8536 17.102 34.8546 17.1009 34.8594C17.0999 34.8641 17.0957 34.882 17.0936 34.8941C17.0936 34.8983 17.0936 34.903 17.0909 34.9078C17.0883 34.9125 17.0883 34.9241 17.0867 34.9325C17.0851 34.9409 17.0867 34.944 17.0867 34.9504L17.0836 34.974V34.993C17.0836 35.0019 17.0836 35.0108 17.0809 35.0203C17.0783 35.0298 17.0809 35.0314 17.0809 35.0371C17.0809 35.0524 17.0809 35.0676 17.0809 35.0839C17.0715 35.6498 17.1046 35.7319 17.1046 35.7319C17.1262 35.7841 17.1615 35.8296 17.2068 35.8636C17.252 35.8976 17.3055 35.9187 17.3618 35.9249C17.3894 35.927 17.4171 35.9256 17.4443 35.9207C17.6968 35.877 18.2858 35.7755 18.4962 35.8155C18.6219 35.8386 18.8538 35.8039 19.0189 35.7729L19.0626 35.7645L19.0926 35.8607L19.1883 35.8344L19.2698 35.8812L19.3224 35.9112C19.4181 36.2352 19.8062 36.1247 19.8062 36.1247L19.8983 36.1773L20.8339 36.2015C20.9389 36.2648 21.0499 36.3176 21.1652 36.3593C21.1804 36.3643 21.1961 36.3678 21.212 36.3698C21.2995 36.3769 21.3873 36.3785 21.475 36.3745C21.5465 36.3745 21.6017 36.3698 21.6017 36.3698C21.6017 36.3698 21.5923 36.1158 21.5786 35.8313C21.8686 35.8241 22.158 35.8004 22.4453 35.7603C22.9449 35.673 23.1532 35.2186 23.23 34.9756C23.2529 35.0749 23.2693 35.1755 23.2789 35.277C23.2993 35.3662 23.3253 35.454 23.3567 35.5399C23.3835 35.6086 23.4188 35.6736 23.4619 35.7335C23.83 35.6078 23.607 35.4179 23.5297 35.3369C23.4524 35.2559 23.5823 35.187 23.5823 35.187C23.5823 35.187 23.6844 35.1192 23.6744 35.0566C23.6644 34.994 23.6596 34.9262 23.9899 34.9309C24.3202 34.9356 24.2997 34.6616 24.2997 34.6616ZM19.1814 31.574C19.1857 31.6013 19.234 31.8995 19.273 31.9779C19.2846 32.0296 19.2883 32.0828 19.284 32.1357C19.0889 32.1199 18.8854 32.1115 18.8854 32.1115C18.8911 32.1186 18.8947 32.1271 18.8959 32.1362L18.8648 32.1293L18.8207 32.1188L19.1804 31.5713L19.1814 31.574ZM18.4683 32.7079L18.8065 32.7604L18.8349 32.7646C18.8253 32.8168 18.8195 32.8695 18.8175 32.9224C18.8175 32.9277 18.8249 32.9335 18.8359 32.9403C18.8312 32.9669 18.8291 32.9938 18.8296 33.0208C18.8349 33.0471 18.9926 33.1049 19.1741 33.1528C19.1715 33.1628 19.1694 33.1722 19.1667 33.1806C19.0063 33.0965 18.7544 33.0571 18.7255 32.9945C18.6966 32.9319 17.8383 32.6321 17.8383 32.6321L17.7531 32.5895L17.9787 32.6321L18.0407 32.6258C18.1813 32.6624 18.3242 32.6898 18.4683 32.7079Z" fill="url(#paint0_linear_1004_3096)"/>
<path d="M23.1963 34.8719C23.1963 34.8719 23.0622 35.684 22.3801 35.8039C21.698 35.9238 19.4208 35.9001 19.4208 35.9001C19.4208 35.9001 18.1186 35.7124 17.6479 34.6127C17.1772 33.513 16.8743 33.0749 17.2798 33.056C17.6852 33.037 19.8599 33.7922 19.9846 33.8007C20.1092 33.8091 23.3168 32.1288 23.1963 34.8719Z" fill="#65617D"/>
<path opacity="0.05" d="M23.1963 34.8719C23.1963 34.8719 23.0622 35.684 22.3801 35.8039C21.698 35.9238 19.4208 35.9001 19.4208 35.9001C19.4208 35.9001 18.1186 35.7124 17.6479 34.6127C17.1772 33.513 16.8743 33.0749 17.2798 33.056C17.6852 33.037 19.8599 33.7922 19.9846 33.8007C20.1092 33.8091 23.3168 32.1288 23.1963 34.8719Z" fill="black"/>
<path d="M17.0899 35.776C17.111 35.828 17.1459 35.8733 17.1907 35.9071C17.2355 35.9409 17.2886 35.9619 17.3444 35.968C17.3721 35.9697 17.3998 35.9681 17.427 35.9632C17.6768 35.9201 18.2627 35.8191 18.4694 35.8581C18.5935 35.8807 18.8233 35.8465 18.9869 35.816C19.0957 35.7955 19.1757 35.776 19.1757 35.776C19.1757 35.776 18.9832 35.137 18.9595 35.1181C18.9359 35.0992 18.0944 34.5922 18.0944 34.5922L17.4286 34.5443C17.3389 34.5577 17.2579 34.6052 17.2024 34.6768C17.1325 34.762 17.072 34.9014 17.0678 35.1302C17.0568 35.6934 17.0899 35.776 17.0899 35.776Z" fill="#3F3D56"/>
<path opacity="0.05" d="M17.0899 35.7759C17.111 35.8279 17.1459 35.8732 17.1907 35.907C17.2355 35.9408 17.2886 35.9618 17.3444 35.9679C17.2792 35.8837 17.2188 35.7959 17.1635 35.7049L17.1672 35.2389C17.154 35.1111 17.1709 34.982 17.2165 34.8619C17.2622 34.7418 17.3354 34.6341 17.4302 34.5474C17.4302 34.5474 17.0794 34.571 17.0694 35.1332C17.0594 35.6954 17.0899 35.7759 17.0899 35.7759Z" fill="black"/>
<path opacity="0.1" d="M19.9777 34.7568L20.5977 34.2714L21.5728 33.3106L21.3098 33.2985C21.2704 33.3237 21.1599 33.4036 21.1557 33.4994C21.151 33.6166 20.8928 33.5078 20.7576 33.5746C20.6224 33.6414 19.965 34.4844 19.8499 34.4786C19.7347 34.4728 19.6432 34.4202 19.5948 34.5023L19.5916 34.5075L19.9777 34.7568Z" fill="black"/>
<path opacity="0.1" d="M17.2009 34.6779C17.223 34.6884 17.2456 34.6989 17.2682 34.7084C17.7389 34.9104 18.32 35.3332 18.3637 35.41C18.39 35.4568 18.7271 35.6614 18.9869 35.8149C19.0957 35.7944 19.1757 35.775 19.1757 35.775C19.1757 35.775 18.9832 35.136 18.9595 35.117C18.9359 35.0981 18.0944 34.5911 18.0944 34.5911L17.4286 34.5433C17.3381 34.5568 17.2564 34.6051 17.2009 34.6779Z" fill="black"/>
<path d="M15.8945 33.301C15.9566 33.4546 16.4804 34.0457 16.4804 34.0457C16.4804 34.0457 16.8117 34.4781 17.2829 34.6768C17.7541 34.8756 18.3348 35.3016 18.3779 35.3784C18.4058 35.4279 18.7813 35.654 19.0453 35.8091L19.1047 35.8439L19.2356 35.9201L19.3051 35.9596C19.3051 35.9596 19.466 35.8307 19.6264 35.7008C19.7868 35.5709 19.942 35.4436 19.942 35.4378C19.942 35.4321 20.0093 35.2601 19.9945 35.2506C19.9798 35.2412 19.9541 35.1791 19.893 35.1018C19.8287 35.0161 19.7448 34.9469 19.6485 34.8998C19.5091 34.8282 19.3979 34.7116 19.3329 34.569C19.3329 34.569 19.3119 34.5538 19.2804 34.5333C19.2149 34.4883 19.1419 34.4557 19.0647 34.437C18.9595 34.4239 18.7618 34.2077 18.7618 34.2077C18.6849 34.1577 18.6208 34.0903 18.5746 34.011C18.522 33.9059 17.7789 33.3936 17.71 33.3463L19.516 34.5064L19.9483 34.7841L20.5683 34.2992L21.5434 33.3384L21.2215 33.3237C20.7482 33.3032 19.9067 33.2711 19.8015 33.2953C19.7154 33.3151 19.6266 33.321 19.5386 33.3126C19.5386 33.3126 19.2988 33.3231 19.1399 33.2395C18.9811 33.1559 18.7313 33.1165 18.7024 33.0544C18.6734 32.9923 17.8236 32.6947 17.8236 32.6947C17.8236 32.6947 16.6665 32.0799 16.2526 32.4449C15.8387 32.8098 15.8319 33.1464 15.8945 33.301Z" fill="#65617D"/>
<path d="M19.6269 29.7748L19.7758 30.2697L19.9682 31.3841L20.6746 31.432L20.8765 31.0954L21.0806 30.7567C21.0806 30.7567 21.2078 30.3065 21.2993 29.871C21.3798 29.4855 21.4329 29.1111 21.3451 29.0706C21.2667 29.0348 21.2157 28.9049 21.1821 28.765C21.1779 28.7482 21.1742 28.7303 21.171 28.7125C21.1475 28.5942 21.1317 28.4746 21.1237 28.3543C21.1237 28.3543 19.6443 28.2775 19.851 28.8876C19.8878 28.9918 19.9067 29.1015 19.9067 29.2121C19.9067 29.2405 19.9067 29.2683 19.9015 29.2946C19.8912 29.3893 19.8615 29.4807 19.8143 29.5634C19.767 29.646 19.7033 29.718 19.6269 29.7748Z" fill="#EE8E9E"/>
<path d="M19.3198 29.6932L19.3724 30.5347L19.4923 31.2505L19.6269 31.5823L19.7473 33.3957C19.7473 33.3957 20.9044 33.5298 21.1873 33.3931C21.2082 33.3851 21.2264 33.3714 21.2399 33.3536C21.5802 32.8398 21.4687 31.3515 21.4687 31.3515L21.598 30.3906L21.5118 29.892L21.3014 29.8699L21.1405 29.8526C21.1405 29.8526 21.1042 29.8973 21.0516 29.9667C20.9091 30.1545 20.6472 30.5247 20.6651 30.6788C20.6887 30.8892 20.6361 31.1064 20.5541 31.14C20.472 31.1737 20.4053 31.2315 20.3911 31.1737C20.3706 31.1252 20.3655 31.0716 20.3763 31.0201C20.3911 30.9381 20.3137 30.6883 20.3137 30.6883C20.3137 30.6883 20.1844 30.3953 20.1938 30.2707C20.2033 30.1461 20.1796 30.0014 20.1412 29.9678C20.1029 29.9341 20.0497 29.9004 20.0929 29.7469C20.136 29.5933 19.9035 29.2941 19.9035 29.2941L19.3198 29.6932Z" fill="#E3E8F4"/>
<path opacity="0.1" d="M20.8496 31.7927L20.898 33.2289L21.1752 33.383C21.196 33.3747 21.2142 33.3609 21.2278 33.3431C21.5681 32.8292 21.4566 31.3409 21.4566 31.3409L21.5865 30.38L21.4997 29.8815L21.2893 29.8594C21.3703 29.4739 21.4229 29.1 21.3351 29.0589C21.2567 29.0232 21.2057 28.8933 21.1726 28.7539L21.0227 29.77C21.0227 29.77 21.0353 29.8615 21.0395 29.9562C21.0457 30.016 21.0416 30.0765 21.0274 30.135C21.008 30.2136 21.0048 30.2954 21.0179 30.3753C20.9312 30.5278 20.888 30.8108 20.867 31.0837C20.8386 31.4466 20.8496 31.7927 20.8496 31.7927Z" fill="black"/>
<path d="M21.1768 28.7287C21.1768 28.7287 21.4192 28.7587 21.496 28.8597C21.5728 28.9606 21.7748 28.9754 21.7748 28.9754C21.7748 28.9754 22.0051 29.0521 22.0004 29.0711C21.9956 29.09 22.0677 29.1195 22.2107 29.1578C22.3538 29.1962 22.5952 29.3356 22.5952 29.3682C22.5952 29.4008 22.9744 29.7763 22.9744 29.8147C22.9744 29.8531 23.0896 29.9972 23.0754 30.2518C23.0612 30.5063 23.0464 30.8303 23.1043 30.8829C23.1621 30.9354 23.1043 31.1421 23.1043 31.1421C23.0887 31.1646 23.08 31.1911 23.0792 31.2185C23.0783 31.2458 23.0854 31.2728 23.0995 31.2962C23.1474 31.3825 23.0896 31.7427 23.0896 31.7427L23.0948 32.1177C23.0948 32.1177 23.0422 32.3528 23.1043 32.3628C23.1663 32.3728 23.0948 32.478 23.0948 32.478C23.0948 32.478 23.0422 32.6699 23.109 32.7567C23.1758 32.8435 23.1953 33.2127 23.1953 33.2127L24.2234 34.7068C24.2234 34.7068 24.2382 34.9808 23.9116 34.9761C23.585 34.9713 23.5892 35.0387 23.5992 35.1007C23.6092 35.1628 23.5077 35.2306 23.5077 35.2306C23.5077 35.2306 23.3783 35.2979 23.4551 35.3794C23.5318 35.461 23.7527 35.6487 23.3877 35.7734C23.3447 35.7141 23.3094 35.6496 23.2826 35.5814C23.2516 35.4966 23.226 35.4101 23.2058 35.3221C23.2058 35.3221 23.1721 34.9566 23.1048 34.9088C23.0375 34.8609 23.047 34.63 23.047 34.63C23.047 34.63 23.1432 34.4428 23.0086 34.3671C22.8739 34.2913 20.9238 33.21 20.9238 33.21L20.8765 31.7732C20.8765 31.7732 20.8428 30.7114 21.0448 30.3559C21.0316 30.276 21.0348 30.1942 21.0543 30.1155C21.0879 30.0293 21.0495 29.7506 21.0495 29.7506L21.1768 28.7287Z" fill="#3F3D56"/>
<path opacity="0.1" d="M19.9177 29.3072C19.9177 29.3072 19.435 29.2078 19.3051 29.2752C19.1752 29.3425 18.9211 29.3951 18.8843 29.4329C18.8475 29.4708 18.7502 29.4429 18.6634 29.6685C18.5767 29.8942 18.5677 30.125 18.4567 30.2308C18.3458 30.3365 18.289 30.4085 18.2842 30.4853C18.2795 30.5621 18.2984 30.5815 18.2553 30.6052C18.2122 30.6289 18.1501 30.7304 18.1685 30.7688C18.187 30.8072 19.1678 31.6528 19.1678 31.6528C19.1678 31.6528 19.2162 31.9747 19.2593 32.0562C19.3024 32.1377 19.2114 33.2621 19.1152 33.3389C19.019 33.4157 19.7615 33.4094 19.7615 33.4094C19.7615 33.4094 19.7952 32.6731 19.8241 32.6331C19.8531 32.5932 19.8047 31.8069 19.8047 31.8069C19.8047 31.8069 19.7999 31.1343 19.8625 30.9565C19.9251 30.7788 19.9151 30.1876 19.9151 30.1876C19.9151 30.1876 19.9703 29.8332 20.0377 29.7506C20.105 29.668 19.9177 29.3072 19.9177 29.3072Z" fill="black"/>
<path d="M19.9035 29.293C19.9035 29.293 19.4207 29.1936 19.2908 29.2604C19.1609 29.3272 18.9064 29.3808 18.8701 29.4182C18.8338 29.4555 18.7355 29.4276 18.6492 29.6538C18.563 29.8799 18.553 30.1097 18.4425 30.2155C18.3321 30.3212 18.2742 30.3932 18.2695 30.47C18.2648 30.5468 18.2842 30.5662 18.2406 30.5904C18.1969 30.6146 18.1354 30.7151 18.1543 30.7535C18.1733 30.7919 19.1536 31.6375 19.1536 31.6375C19.1536 31.6375 19.2014 31.9594 19.2451 32.0409C19.2887 32.1224 19.1967 33.2468 19.1005 33.3236C19.0042 33.4004 19.7494 33.3936 19.7494 33.3936C19.7494 33.3936 19.7831 32.6573 19.8115 32.6178C19.8399 32.5784 19.7926 31.7911 19.7926 31.7911C19.7926 31.7911 19.7878 31.119 19.8504 30.9412C19.913 30.7635 19.9056 30.1723 19.9056 30.1723C19.9056 30.1723 19.9609 29.8179 20.0282 29.7353C20.0955 29.6527 19.9035 29.293 19.9035 29.293Z" fill="#3F3D56"/>
<path opacity="0.1" d="M19.8531 28.8865C19.89 28.9907 19.9088 29.1004 19.9088 29.211C20.1448 29.2801 20.3971 29.2685 20.6258 29.178C20.8544 29.0875 21.0463 28.9233 21.171 28.7113C21.1475 28.5931 21.1317 28.4735 21.1237 28.3532C21.1237 28.3532 19.6464 28.2759 19.8531 28.8865Z" fill="black"/>
<path d="M19.1226 28.1271C19.1224 28.409 19.2304 28.6803 19.4244 28.885C19.6183 29.0896 19.8834 29.212 20.165 29.227C20.4465 29.2419 20.7231 29.1482 20.9376 28.9653C21.1522 28.7823 21.2883 28.5239 21.3179 28.2435C21.3476 27.9631 21.2685 27.6821 21.097 27.4582C20.9255 27.2344 20.6746 27.085 20.3962 27.0407C20.1177 26.9964 19.8329 27.0607 19.6004 27.2203C19.3679 27.3798 19.2055 27.6225 19.1468 27.8983C19.1306 27.9735 19.1225 28.0502 19.1226 28.1271Z" fill="#EE8E9E"/>
<path d="M18.4162 30.6746L18.1533 30.7561C18.16 30.7826 18.1586 30.8105 18.1492 30.8362C18.1398 30.8619 18.1229 30.8842 18.1007 30.9002C18.0778 30.9161 18.0596 30.9379 18.0478 30.9632C18.0361 30.9885 18.0313 31.0165 18.0339 31.0443C18.0339 31.0443 18.005 31.1495 17.9377 31.1742C17.8703 31.1989 17.8272 31.3567 17.8272 31.3567L17.6063 31.6112C17.6063 31.6112 17.5243 31.6785 17.539 31.7122C17.5537 31.7459 17.4522 31.7553 17.4522 31.7553L17.5048 32.6105L17.9613 32.6972L18.2448 32.6683L18.4751 32.5821L18.6771 32.4616L18.7681 32.2265L19.172 31.6112L18.4162 30.6746Z" fill="#3F3D56"/>
<path d="M17.518 31.8211C17.518 31.8211 16.9321 30.9759 16.4945 31.4319C16.057 31.8879 16.6723 32.6284 16.8164 32.6042C16.9605 32.58 17.6479 32.5416 17.6479 32.5416L17.518 31.8211Z" fill="#EE8E9E"/>
<path d="M18.8982 31.4557L16.3101 30.1347C16.2703 30.1144 16.2215 30.1302 16.2012 30.17L15.192 32.1473C15.1716 32.1871 15.1874 32.2359 15.2273 32.2562L17.8154 33.5772C17.8552 33.5975 17.904 33.5817 17.9243 33.5419L18.9335 31.5646C18.9538 31.5248 18.938 31.476 18.8982 31.4557Z" fill="#3F3D56"/>
<path d="M18.6575 31.5731L16.3608 30.4008L15.4773 32.1317L17.7741 33.3039L18.6575 31.5731Z" fill="#E4AF00"/>
<path d="M15.8309 31.2626C15.8541 31.2626 15.873 31.2438 15.873 31.2205C15.873 31.1973 15.8541 31.1785 15.8309 31.1785C15.8077 31.1785 15.7888 31.1973 15.7888 31.2205C15.7888 31.2438 15.8077 31.2626 15.8309 31.2626Z" fill="#E6E8EC"/>
<path d="M18.3169 32.5642C18.3555 32.5642 18.3868 32.5329 18.3868 32.4943C18.3868 32.4556 18.3555 32.4243 18.3169 32.4243C18.2782 32.4243 18.2469 32.4556 18.2469 32.4943C18.2469 32.5329 18.2782 32.5642 18.3169 32.5642Z" fill="#E6E8EC"/>
<path d="M17.1387 31.9988C17.1335 32.6331 18.4451 32.7677 18.4451 32.7677L18.7801 32.8203L18.9305 32.844L18.9931 32.2244C18.9931 32.2244 18.9242 32.2139 18.8385 32.1939C18.7112 32.1645 18.5466 32.1135 18.5124 32.0414C18.4572 31.922 17.1424 31.3646 17.1387 31.9988Z" fill="#EE8E9E"/>
<path opacity="0.1" d="M19.1468 27.8982C19.1769 27.9005 19.2054 27.9131 19.2272 27.934C19.264 27.9734 19.2661 28.0434 19.3145 28.0676C19.3326 28.0752 19.3525 28.0774 19.3719 28.0739C19.4997 28.056 19.5733 27.9119 19.6963 27.8719C19.7679 27.8535 19.8436 27.86 19.9109 27.8903C19.9383 27.8992 19.9629 27.915 19.9824 27.9361C20.0235 27.9887 19.9945 28.0676 20.0135 28.1317C20.0398 28.2211 20.1465 28.2564 20.2386 28.2679C20.3306 28.2795 20.4347 28.2864 20.4963 28.3558C20.5166 28.3818 20.5312 28.4119 20.5391 28.4439C20.547 28.476 20.548 28.5094 20.542 28.5419C20.5365 28.5646 20.5365 28.5882 20.542 28.6108C20.5673 28.6829 20.6919 28.6718 20.7245 28.615C20.7487 28.5735 20.7413 28.5393 20.7976 28.5277C20.8378 28.5245 20.8782 28.5316 20.9149 28.5483C21.0128 28.5819 21.1159 28.5977 21.2194 28.5951C21.2852 28.4547 21.3206 28.302 21.3233 28.1469C21.326 27.9919 21.2958 27.8381 21.2349 27.6955C21.174 27.553 21.0836 27.4249 20.9697 27.3197C20.8558 27.2145 20.7209 27.1346 20.5739 27.0852C20.427 27.0357 20.2712 27.0179 20.1169 27.0329C19.9626 27.0479 19.8132 27.0953 19.6785 27.1721C19.5438 27.2489 19.4268 27.3533 19.3353 27.4784C19.2437 27.6035 19.1797 27.7466 19.1473 27.8982H19.1468Z" fill="black"/>
<path d="M20.5415 28.582C20.536 28.5594 20.536 28.5357 20.5415 28.5131C20.5475 28.4807 20.5465 28.4474 20.5386 28.4154C20.5307 28.3833 20.5161 28.3534 20.4957 28.3275C20.4342 28.2575 20.3306 28.2512 20.238 28.2391C20.1455 28.227 20.0392 28.1923 20.0129 28.1029C19.994 28.0387 20.0229 27.9604 19.9819 27.9078C19.9627 27.8863 19.938 27.8705 19.9104 27.862C19.8431 27.8316 19.7674 27.8249 19.6958 27.8431C19.5728 27.8831 19.4991 28.0272 19.3713 28.045C19.352 28.0488 19.332 28.0466 19.314 28.0387C19.2656 28.0145 19.2614 27.9446 19.2267 27.9052C19.1683 27.8436 19.0574 27.8836 18.9864 27.8378C18.9433 27.8019 18.9155 27.751 18.9085 27.6953C18.8767 27.5922 18.8695 27.483 18.8875 27.3766C18.929 27.1983 19.0889 27.0758 19.1904 26.9227C19.2856 26.7807 19.3392 26.6009 19.4818 26.5067C19.6243 26.4126 19.8078 26.4336 19.9693 26.4815C20.0435 26.508 20.1199 26.528 20.1975 26.5415C20.3274 26.5572 20.4579 26.522 20.5883 26.5178C20.7732 26.5118 20.9548 26.5673 21.1048 26.6756C21.1386 26.6976 21.1673 26.7267 21.1889 26.7608C21.2106 26.8091 21.2234 26.8609 21.2268 26.9138C21.2421 27.0131 21.2766 27.1085 21.3283 27.1946C21.3682 27.2625 21.4193 27.3235 21.4555 27.3934C21.4961 27.462 21.5086 27.5436 21.4903 27.6212C21.4776 27.6606 21.4534 27.6964 21.444 27.7369C21.4229 27.8305 21.4845 27.9204 21.5265 28.0067C21.5675 28.0856 21.5869 28.1739 21.5828 28.2628C21.5806 28.307 21.5692 28.3504 21.5494 28.39C21.5295 28.4297 21.5017 28.4648 21.4676 28.4931C21.3962 28.5427 21.3111 28.5686 21.2241 28.5673C21.1187 28.5705 21.0136 28.5546 20.9138 28.5205C20.877 28.5041 20.8368 28.497 20.7966 28.5C20.7403 28.5115 20.7477 28.5457 20.7235 28.5873C20.6914 28.643 20.5673 28.6541 20.5415 28.582Z" fill="#3F3D56"/>
<path opacity="0.1" d="M19.9488 34.7852L20.5688 34.3003L21.5439 33.3394L21.222 33.3247C21.1842 33.3589 21.1601 33.4056 21.1542 33.4562C21.1494 33.5735 20.8912 33.4641 20.756 33.5314C20.6209 33.5987 19.9635 34.4412 19.8483 34.4354C19.7331 34.4297 19.6416 34.3771 19.5932 34.4586L19.5901 34.4638C19.5709 34.486 19.5451 34.5013 19.5164 34.5075L19.9488 34.7852Z" fill="black"/>
<path d="M18.6997 34.7516L19.0111 35.7461L19.06 35.9039L19.2083 35.8634L19.5354 35.7734L20.9911 35.3737C21.1745 35.3658 21.354 35.3181 21.517 35.2339C21.7923 35.0796 22.1072 35.011 22.4216 35.0366C22.6141 35.0545 22.8282 34.9714 23.0059 34.6432C23.0059 34.6432 23.4093 33.452 22.3911 33.1107C21.3729 32.7694 21.324 33.2922 21.324 33.2922L21.3098 33.3006C21.2704 33.3258 21.1599 33.4058 21.1557 33.5015C21.151 33.6188 20.8928 33.5099 20.7576 33.5767C20.6225 33.6435 19.9651 34.4865 19.8499 34.4807C19.7347 34.475 19.6432 34.4224 19.5948 34.5044L19.5917 34.5097C19.5559 34.5586 19.4491 34.5701 19.3781 34.5717C19.3561 34.5729 19.3339 34.5729 19.3119 34.5717L19.3024 34.5744L19.2288 34.5964L18.6997 34.7516Z" fill="#65617D"/>
<path opacity="0.1" d="M18.7802 32.8209L18.9306 32.8446L18.9932 32.2251C18.9932 32.2251 18.9243 32.2146 18.8386 32.1946C18.8612 32.2814 18.8097 32.6153 18.7802 32.8209Z" fill="black"/>
<path opacity="0.1" d="M22.7088 29.9252C22.7088 29.9252 23.1553 29.7953 23.0448 31.0638C22.9682 31.8381 22.639 32.5656 22.1082 33.1344C22.1082 33.1344 21.1568 33.552 20.7292 33.4846C20.3016 33.4173 19.9898 33.4031 19.9898 33.4031C19.8551 33.3351 19.7076 33.2959 19.5569 33.2879C19.3171 33.2785 18.8128 33.1302 18.8028 33.0813C18.7928 33.0324 18.9279 32.3271 18.8701 32.2745C18.8701 32.2745 19.5427 32.3019 19.6101 32.3502C19.6774 32.3986 19.7736 32.3644 19.8457 32.3502C19.9177 32.336 20.1386 32.1446 20.5756 32.3129C20.5756 32.3129 20.7245 32.3271 20.7823 32.2887C20.8295 32.2667 20.8832 32.2634 20.9327 32.2792C20.9701 32.2668 21.0056 32.2491 21.0379 32.2266C21.0521 32.2077 21.1678 32.2266 21.1678 32.2266C21.1747 32.2297 21.1822 32.2313 21.1897 32.2312C21.1973 32.2312 21.2047 32.2295 21.2115 32.2263C21.2184 32.2231 21.2244 32.2185 21.2293 32.2127C21.2342 32.207 21.2378 32.2002 21.2399 32.193C21.2551 32.1538 21.278 32.118 21.3072 32.0878C21.3072 32.0878 21.4366 31.3578 21.6816 31.0838C21.7012 31.0667 21.7163 31.0451 21.7254 31.0207C21.7346 30.9964 21.7376 30.9702 21.7342 30.9445C21.7143 30.8666 22.1324 29.7711 22.7088 29.9252Z" fill="black"/>
<path d="M22.6967 29.8273C22.6967 29.8273 23.1437 29.698 23.0333 30.9659C22.9568 31.7402 22.6276 32.4678 22.0966 33.0365C22.0966 33.0365 21.1452 33.4546 20.7177 33.3873C20.2901 33.3199 19.9777 33.3042 19.9777 33.3042C19.8432 33.2361 19.6959 33.1969 19.5454 33.189C19.305 33.179 18.8007 33.0312 18.7912 32.9823C18.7818 32.9334 18.9159 32.2281 18.8585 32.175C18.8585 32.175 19.5312 32.2029 19.5985 32.2513C19.6658 32.2997 19.7615 32.265 19.8336 32.2513C19.9056 32.2376 20.1265 32.0457 20.5641 32.2134C20.5641 32.2134 20.7129 32.2281 20.7702 32.1898C20.8174 32.168 20.871 32.1644 20.9207 32.1798C20.9579 32.167 20.9933 32.1494 21.0258 32.1272C21.04 32.1077 21.1552 32.1272 21.1552 32.1272C21.1621 32.1302 21.1696 32.1318 21.1771 32.1317C21.1847 32.1317 21.1921 32.13 21.1989 32.1268C21.2058 32.1236 21.2118 32.119 21.2167 32.1132C21.2216 32.1075 21.2252 32.1008 21.2273 32.0935C21.2425 32.0543 21.2654 32.0186 21.2946 31.9883C21.2946 31.9883 21.4245 31.2584 21.6696 30.9844C21.6891 30.9672 21.7042 30.9456 21.7133 30.9213C21.7225 30.897 21.7255 30.8707 21.7222 30.845C21.7027 30.7693 22.1203 29.6753 22.6967 29.8273Z" fill="#3F3D56"/>
<path opacity="0.1" d="M19.2272 34.5937L19.8615 35.3616L19.8657 35.3574C19.8704 35.3427 19.933 35.1796 19.9183 35.1696C19.9036 35.1596 19.7936 34.9198 19.5728 34.8188C19.4604 34.7641 19.3661 34.6783 19.3009 34.5717L19.2272 34.5937Z" fill="black"/>
<path opacity="0.1" d="M19.2356 35.9227L19.3051 35.9622C19.3051 35.9622 19.466 35.8333 19.6264 35.7034C19.7868 35.5735 19.9419 35.4463 19.9419 35.4405C19.9419 35.4347 20.0093 35.2627 19.9945 35.2532C19.9798 35.2438 19.954 35.1817 19.893 35.1044C19.4628 34.984 19.7353 35.2827 19.7731 35.2964C19.7731 35.2964 19.2498 35.1759 19.2209 35.7466C19.2184 35.8057 19.2234 35.8649 19.2356 35.9227Z" fill="black"/>
<path d="M19.7663 36.1641L19.8578 36.2167L20.785 36.2403C20.889 36.3036 20.9989 36.3564 21.1132 36.3981C21.1283 36.4026 21.1438 36.406 21.1595 36.4081C21.2455 36.4151 21.3319 36.4167 21.4182 36.4128C21.4892 36.4128 21.5439 36.4081 21.5439 36.4081C21.5439 36.4081 21.5002 35.239 21.4671 35.1159C21.4513 35.057 21.3735 35.0697 21.2967 35.0991C21.2392 35.1227 21.1836 35.1508 21.1305 35.1833C21.1305 35.1833 20.7371 35.2216 20.6746 35.2553C20.612 35.289 20.4342 35.2358 20.3238 35.2553C20.2133 35.2748 20.0161 35.1254 20.0161 35.1254C19.4781 34.9476 19.781 35.279 19.8194 35.2937C19.8194 35.2937 19.2935 35.1733 19.2667 35.7439C19.2399 36.3145 19.7663 36.1641 19.7663 36.1641Z" fill="#3F3D56"/>
<path d="M21.1069 35.7129C21.1169 35.9548 21.3057 36.2551 21.4182 36.4139C21.4892 36.4139 21.5439 36.4092 21.5439 36.4092C21.5439 36.4092 21.5002 35.2401 21.4671 35.117C21.4513 35.0581 21.3735 35.0707 21.2967 35.1002C21.2036 35.2748 21.0984 35.5172 21.1069 35.7129Z" fill="#565387"/>
<path opacity="0.1" d="M21.1069 35.7129C21.1169 35.9548 21.3057 36.2551 21.4182 36.4139C21.4892 36.4139 21.5439 36.4092 21.5439 36.4092C21.5439 36.4092 21.5002 35.2401 21.4671 35.117C21.4513 35.0581 21.3735 35.0707 21.2967 35.1002C21.2036 35.2748 21.0984 35.5172 21.1069 35.7129Z" fill="black"/>
<path opacity="0.05" d="M20.948 35.745C21.0122 35.9785 21.0111 36.2404 21.1131 36.3992C21.1283 36.4037 21.1438 36.407 21.1594 36.4092C21.2455 36.4162 21.3319 36.4178 21.4182 36.4139C21.4892 36.4139 21.5439 36.4092 21.5439 36.4092C21.5439 36.4092 21.5002 35.2401 21.4671 35.117C21.4513 35.0581 21.3735 35.0707 21.2967 35.1002C21.2391 35.1237 21.1835 35.1519 21.1305 35.1843C21.1305 35.1843 20.8665 35.4457 20.948 35.745Z" fill="black"/>
<path opacity="0.1" d="M17.7494 33.3746C17.7494 33.3746 18.2101 33.524 18.6003 34.0552L17.7494 33.3746Z" fill="black"/>
<g opacity="0.1">
<path d="M21.492 27.6096C21.492 27.6133 21.492 27.6165 21.4894 27.6201C21.4849 27.6338 21.4795 27.6472 21.4731 27.6601C21.4781 27.6428 21.4845 27.626 21.492 27.6096Z" fill="black"/>
<path d="M18.8864 27.3766C18.8942 27.3429 18.9062 27.3104 18.9222 27.2798C18.9222 27.2877 18.9169 27.2961 18.9148 27.3045C18.8973 27.411 18.9047 27.5201 18.9364 27.6232C18.9433 27.6787 18.9709 27.7296 19.0137 27.7657C19.0852 27.8115 19.1962 27.7715 19.2545 27.833C19.2914 27.8725 19.2935 27.9424 19.3418 27.9666C19.3599 27.9745 19.3799 27.9767 19.3992 27.9729C19.527 27.9551 19.6006 27.811 19.7237 27.771C19.7952 27.7526 19.871 27.7592 19.9382 27.7899C19.9658 27.7984 19.9906 27.8142 20.0098 27.8357C20.0508 27.8883 20.0219 27.9666 20.0408 28.0308C20.0671 28.1202 20.1739 28.1554 20.2659 28.167C20.3579 28.1786 20.4621 28.1854 20.5236 28.2554C20.544 28.2813 20.5586 28.3112 20.5665 28.3433C20.5744 28.3753 20.5753 28.4086 20.5693 28.441C20.5638 28.4636 20.5638 28.4873 20.5693 28.5099C20.5946 28.582 20.7192 28.5709 20.7518 28.5141C20.776 28.4726 20.7687 28.4384 20.8249 28.4268C20.8651 28.4239 20.9054 28.4309 20.9422 28.4473C21.042 28.4815 21.1471 28.4973 21.2525 28.4941C21.3394 28.4955 21.4246 28.4695 21.496 28.42C21.5272 28.3954 21.5527 28.3644 21.5707 28.329C21.5544 28.3934 21.5175 28.4507 21.4655 28.492C21.3941 28.5416 21.3089 28.5675 21.222 28.5662C21.1166 28.5694 21.0115 28.5535 20.9117 28.5194C20.8749 28.503 20.8346 28.4959 20.7944 28.4989C20.7382 28.5104 20.7455 28.5446 20.7219 28.5862C20.6887 28.643 20.5641 28.654 20.5388 28.582C20.5336 28.5593 20.5336 28.5357 20.5388 28.5131C20.5448 28.4806 20.5439 28.4473 20.536 28.4153C20.5281 28.3833 20.5135 28.3533 20.4931 28.3274C20.4315 28.2575 20.3279 28.2512 20.2354 28.2391C20.1428 28.227 20.0366 28.1923 20.0103 28.1028C19.9914 28.0387 20.0203 27.9603 19.9793 27.9077C19.9602 27.8863 19.9356 27.8705 19.9083 27.862C19.8408 27.8315 19.7649 27.8249 19.6932 27.843C19.5706 27.883 19.4965 28.0271 19.3687 28.045C19.3494 28.0488 19.3294 28.0466 19.3113 28.0387C19.263 28.0145 19.2588 27.9445 19.224 27.9051C19.1657 27.8436 19.0552 27.8835 18.9837 27.8378C18.9406 27.8018 18.9128 27.7509 18.9059 27.6953C18.8746 27.592 18.8679 27.4829 18.8864 27.3766Z" fill="black"/>
</g>
<path opacity="0.1" d="M21.5665 31.2221C21.4781 31.3409 21.3777 31.4509 21.2999 31.576C21.2153 31.6994 21.1742 31.8474 21.1831 31.9968C21.2636 31.9142 21.3009 31.7995 21.3514 31.6959C21.4376 31.5203 21.566 31.3714 21.6748 31.2105C21.6953 31.1795 21.8279 31.0001 21.7611 30.9928C21.7053 30.9849 21.5965 31.1816 21.5665 31.2221Z" fill="black"/>
<path d="M22.0398 42.4751C22.1035 42.6791 22.1676 42.8837 22.247 43.082C22.3901 43.4267 22.5702 43.7548 22.784 44.0607C22.9219 44.2621 23.07 44.4562 23.2279 44.6424C23.4256 44.8754 23.6486 45.1099 23.7159 45.4076C23.7564 45.5796 23.7427 45.7589 23.7596 45.9335C23.7764 46.1081 23.8337 46.2953 23.9763 46.4005C24.0778 46.4757 24.2077 46.4983 24.3323 46.5178C24.4217 46.532 24.5332 46.5367 24.5795 46.4594C24.5957 46.4278 24.6041 46.3929 24.6042 46.3574L24.6258 46.1002C24.63 46.0445 24.65 45.9735 24.7057 45.9708C24.7615 45.9682 24.7893 46.0424 24.8367 46.076C24.8998 46.1202 24.9944 46.076 25.0291 46.0092C25.058 45.9369 25.0598 45.8567 25.0344 45.7831C24.9961 45.6367 24.9272 45.5001 24.8323 45.3823C24.7374 45.2644 24.6186 45.168 24.4838 45.0994C24.3901 45.0616 24.3003 45.015 24.2155 44.96C24.1295 44.8852 24.0581 44.7949 24.0052 44.6939C23.5171 43.8903 23.0264 43.0825 22.682 42.2079C22.6141 42.0516 22.5683 41.8867 22.5458 41.7178C22.5289 41.5458 22.5558 41.3728 22.5668 41.2003C22.5872 40.8904 22.5584 40.5792 22.4816 40.2783C22.4648 40.1993 22.4351 40.1236 22.3938 40.0543C22.2518 39.8392 21.9204 39.8071 21.7101 39.9554C21.6326 40.015 21.5684 40.09 21.5215 40.1758C21.4746 40.2615 21.446 40.3561 21.4377 40.4534C21.4224 40.6281 21.5229 40.809 21.5739 40.9715C21.7285 41.4732 21.8838 41.9744 22.0398 42.4751Z" fill="#A1616A"/>
<path opacity="0.05" d="M22.0398 42.4751C22.1035 42.6791 22.1676 42.8837 22.247 43.082C22.3901 43.4267 22.5702 43.7548 22.784 44.0607C22.9219 44.2621 23.07 44.4562 23.2279 44.6424C23.4256 44.8754 23.6486 45.1099 23.7159 45.4076C23.7564 45.5796 23.7427 45.7589 23.7596 45.9335C23.7764 46.1081 23.8337 46.2953 23.9763 46.4005C24.0778 46.4757 24.2077 46.4983 24.3323 46.5178C24.4217 46.532 24.5332 46.5367 24.5795 46.4594C24.5957 46.4278 24.6041 46.3929 24.6042 46.3574L24.6258 46.1002C24.63 46.0445 24.65 45.9735 24.7057 45.9708C24.7615 45.9682 24.7893 46.0424 24.8367 46.076C24.8998 46.1202 24.9944 46.076 25.0291 46.0092C25.058 45.9369 25.0598 45.8567 25.0344 45.7831C24.9961 45.6367 24.9272 45.5001 24.8323 45.3823C24.7374 45.2644 24.6186 45.168 24.4838 45.0994C24.3901 45.0616 24.3003 45.015 24.2155 44.96C24.1295 44.8852 24.0581 44.7949 24.0052 44.6939C23.5171 43.8903 23.0264 43.0825 22.682 42.2079C22.6141 42.0516 22.5683 41.8867 22.5458 41.7178C22.5289 41.5458 22.5558 41.3728 22.5668 41.2003C22.5872 40.8904 22.5584 40.5792 22.4816 40.2783C22.4648 40.1993 22.4351 40.1236 22.3938 40.0543C22.2518 39.8392 21.9204 39.8071 21.7101 39.9554C21.6326 40.015 21.5684 40.09 21.5215 40.1758C21.4746 40.2615 21.446 40.3561 21.4377 40.4534C21.4224 40.6281 21.5229 40.809 21.5739 40.9715C21.7285 41.4732 21.8838 41.9744 22.0398 42.4751Z" fill="black"/>
<path d="M18.9738 51.0676C19.0689 51.1007 19.1701 51.1129 19.2704 51.1033C19.2777 51.0213 19.3882 51.0029 19.4702 51.0071C19.5099 51.0058 19.5492 51.0149 19.5844 51.0334C19.6049 51.0465 19.6206 51.0655 19.6406 51.0791C19.6763 51.0987 19.7162 51.109 19.7569 51.1091L20.1839 51.1449C20.3743 51.1612 20.5726 51.1759 20.7508 51.1081C20.7864 51.0968 20.8179 51.0757 20.8418 51.0471C20.8902 50.9776 20.8418 50.8782 20.775 50.8278C20.7082 50.7773 20.622 50.7547 20.5547 50.7031C20.4064 50.59 20.3858 50.3786 20.3075 50.2093C20.2518 50.1025 20.1831 50.0031 20.1029 49.9132C20.0448 49.836 19.9771 49.7666 19.9015 49.7065C19.73 49.5829 19.5333 49.5855 19.3319 49.5677C19.1899 49.555 19.0563 49.5466 18.9543 49.6728C18.8281 49.8306 18.8786 50.1462 18.8865 50.3302C18.8963 50.5779 18.9255 50.8245 18.9738 51.0676Z" fill="#514E7F"/>
<path opacity="0.05" d="M18.9738 51.0676C19.0689 51.1007 19.1701 51.1129 19.2704 51.1033C19.2777 51.0213 19.3882 51.0029 19.4702 51.0071C19.5099 51.0058 19.5492 51.0149 19.5844 51.0334C19.6049 51.0465 19.6206 51.0655 19.6406 51.0791C19.6763 51.0987 19.7162 51.109 19.7569 51.1091L20.1839 51.1449C20.3743 51.1612 20.5726 51.1759 20.7508 51.1081C20.7864 51.0968 20.8179 51.0757 20.8418 51.0471C20.8902 50.9776 20.8418 50.8782 20.775 50.8278C20.7082 50.7773 20.622 50.7547 20.5547 50.7031C20.4064 50.59 20.3858 50.3786 20.3075 50.2093C20.2518 50.1025 20.1831 50.0031 20.1029 49.9132C20.0448 49.836 19.9771 49.7666 19.9015 49.7065C19.73 49.5829 19.5333 49.5855 19.3319 49.5677C19.1899 49.555 19.0563 49.5466 18.9543 49.6728C18.8281 49.8306 18.8786 50.1462 18.8865 50.3302C18.8963 50.5779 18.9255 50.8245 18.9738 51.0676Z" fill="black"/>
<path d="M19.1462 42.7607C19.0158 42.8028 18.959 42.9653 18.9832 43.1005C19.0074 43.2356 19.0884 43.3524 19.1552 43.4723C19.3455 43.8126 19.4276 44.2017 19.5875 44.5567C19.7069 44.8197 19.8683 45.0669 19.9861 45.333C20.1039 45.5991 20.177 45.8994 20.1055 46.1818C20.0708 46.3191 20.0035 46.4448 19.9588 46.5799C19.9145 46.7264 19.8856 46.8771 19.8725 47.0296C19.8146 47.5475 19.8042 48.0696 19.8415 48.5895C19.8418 48.6528 19.8551 48.7155 19.8804 48.7735C19.9072 48.8261 19.9535 48.8787 19.933 48.9313C19.9241 48.9529 19.9046 48.9686 19.8951 48.9897C19.8678 49.0486 19.9225 49.1112 19.9724 49.1532C19.9635 49.1691 19.9515 49.1829 19.9372 49.194C19.9228 49.2051 19.9064 49.2133 19.8888 49.2179C19.9247 49.2407 19.9522 49.2745 19.9673 49.3142C19.9825 49.3539 19.9845 49.3974 19.973 49.4383C19.9288 49.4451 19.9262 49.513 19.954 49.5487C19.9819 49.5845 20.0261 49.6066 20.0461 49.6471C20.0578 49.6801 20.0565 49.7163 20.0425 49.7484C20.0284 49.7804 20.0026 49.8059 19.9703 49.8196C19.9046 49.8449 19.833 49.8504 19.7642 49.8354C19.6476 49.8191 19.5324 49.7938 19.4197 49.7596C19.3608 49.7481 19.308 49.7156 19.2711 49.6683C19.2342 49.6209 19.2157 49.5619 19.2188 49.5019C19.1928 49.2879 19.1848 49.072 19.1951 48.8566C19.2135 47.8132 19.1951 46.7687 19.1499 45.7258C19.1315 45.3051 19.0053 44.8975 18.8428 44.5104C18.7529 44.3126 18.6531 44.1196 18.5435 43.9319C18.309 43.5028 18.1018 43.0274 18.1554 42.5409C18.1612 42.4883 18.1801 42.4257 18.2322 42.4173C18.2525 42.4151 18.2731 42.4186 18.2916 42.4273C18.3996 42.4777 18.5042 42.5354 18.6045 42.5998C18.7694 42.6965 18.9553 42.7517 19.1462 42.7607Z" fill="#464353"/>
<path opacity="0.05" d="M19.1462 42.7607C19.0158 42.8028 18.959 42.9653 18.9832 43.1005C19.0074 43.2356 19.0884 43.3524 19.1552 43.4723C19.3455 43.8126 19.4276 44.2017 19.5875 44.5567C19.7069 44.8197 19.8683 45.0669 19.9861 45.333C20.1039 45.5991 20.177 45.8994 20.1055 46.1818C20.0708 46.3191 20.0035 46.4448 19.9588 46.5799C19.9145 46.7264 19.8856 46.8771 19.8725 47.0296C19.8146 47.5475 19.8042 48.0696 19.8415 48.5895C19.8418 48.6528 19.8551 48.7155 19.8804 48.7735C19.9072 48.8261 19.9535 48.8787 19.933 48.9313C19.9241 48.9529 19.9046 48.9686 19.8951 48.9897C19.8678 49.0486 19.9225 49.1112 19.9724 49.1532C19.9635 49.1691 19.9515 49.1829 19.9372 49.194C19.9228 49.2051 19.9064 49.2133 19.8888 49.2179C19.9247 49.2407 19.9522 49.2745 19.9673 49.3142C19.9825 49.3539 19.9845 49.3974 19.973 49.4383C19.9288 49.4451 19.9262 49.513 19.954 49.5487C19.9819 49.5845 20.0261 49.6066 20.0461 49.6471C20.0578 49.6801 20.0565 49.7163 20.0425 49.7484C20.0284 49.7804 20.0026 49.8059 19.9703 49.8196C19.9046 49.8449 19.833 49.8504 19.7642 49.8354C19.6476 49.8191 19.5324 49.7938 19.4197 49.7596C19.3608 49.7481 19.308 49.7156 19.2711 49.6683C19.2342 49.6209 19.2157 49.5619 19.2188 49.5019C19.1928 49.2879 19.1848 49.072 19.1951 48.8566C19.2135 47.8132 19.1951 46.7687 19.1499 45.7258C19.1315 45.3051 19.0053 44.8975 18.8428 44.5104C18.7529 44.3126 18.6531 44.1196 18.5435 43.9319C18.309 43.5028 18.1018 43.0274 18.1554 42.5409C18.1612 42.4883 18.1801 42.4257 18.2322 42.4173C18.2525 42.4151 18.2731 42.4186 18.2916 42.4273C18.3996 42.4777 18.5042 42.5354 18.6045 42.5998C18.7694 42.6965 18.9553 42.7517 19.1462 42.7607Z" fill="black"/>
<path d="M17.3828 41.4922C17.3148 41.4485 17.2364 41.4238 17.1556 41.4207C17.062 41.4254 16.9821 41.487 16.909 41.5459C16.8224 41.6123 16.7402 41.6844 16.6629 41.7615C16.5028 41.9321 16.3913 42.1424 16.3399 42.3706C16.2885 42.5989 16.299 42.8367 16.3705 43.0594C16.4478 43.2914 16.5892 43.496 16.7291 43.6963L17.0131 44.1044C17.4465 44.7266 17.8798 45.3488 18.3337 45.9562C18.3338 45.9711 18.3386 45.9856 18.3475 45.9977C18.3564 46.0097 18.3689 46.0185 18.3831 46.023C18.3994 46.0272 18.42 46.0267 18.4299 46.0403C18.4346 46.0489 18.4366 46.0586 18.4357 46.0682C18.4347 46.1131 18.4262 46.1576 18.4105 46.1997C18.4031 46.2136 18.4012 46.2297 18.4052 46.2449C18.42 46.2791 18.482 46.2596 18.502 46.2917C18.5151 46.3128 18.4988 46.3401 18.4815 46.358C18.4641 46.3759 18.4426 46.3959 18.4457 46.4206C18.4489 46.4453 18.492 46.4732 18.4904 46.5037C18.4904 46.5216 18.4746 46.5352 18.4636 46.5494C18.4481 46.5721 18.4411 46.5994 18.4437 46.6267C18.4463 46.654 18.4584 46.6795 18.4778 46.6988C18.5078 46.9954 18.3463 47.2773 18.3142 47.5729C18.2617 48.0399 18.4747 48.4958 18.5004 48.9644C18.4989 49.0172 18.5089 49.0696 18.5299 49.118C18.5735 49.199 18.6876 49.2479 18.6819 49.3399C18.6736 49.3778 18.6629 49.415 18.6498 49.4514C18.6408 49.504 18.6661 49.5566 18.6671 49.6092C18.6682 49.6618 18.6214 49.7265 18.5719 49.7055C18.6091 49.8296 18.6422 49.9547 18.6713 50.081L19.6653 50.163C19.676 50.0737 19.673 49.9832 19.6564 49.8948C19.6359 49.7985 19.5928 49.7091 19.5701 49.6139C19.5554 49.5671 19.5513 49.5176 19.558 49.4689C19.5648 49.4202 19.5822 49.3737 19.6091 49.3326C19.5831 49.3329 19.558 49.324 19.5379 49.3076C19.5179 49.2911 19.5044 49.2681 19.4997 49.2427C19.4913 49.1914 19.4922 49.139 19.5023 49.088C19.5286 48.8288 19.4197 48.5732 19.4229 48.3128C19.426 48.1077 19.4981 47.9105 19.5344 47.7091C19.6122 47.2778 19.5312 46.8103 19.7232 46.4164C19.8394 46.1792 20.0003 45.9162 19.8699 45.6864C19.8057 45.5728 19.6921 45.495 19.618 45.3877C19.5575 45.2863 19.5122 45.1766 19.4834 45.0621C19.3303 44.5888 19.0826 44.1491 18.8654 43.699C18.8051 43.5861 18.7604 43.4656 18.7324 43.3408C18.717 43.2313 18.7114 43.1206 18.7155 43.01C18.7155 42.8115 18.7034 42.6132 18.6792 42.4162C18.6743 42.3299 18.6497 42.2459 18.6072 42.1706C18.5643 42.1137 18.5107 42.0656 18.4494 42.0292C18.1233 41.8057 17.7352 41.6779 17.3828 41.4922Z" fill="#464353"/>
<path d="M18.5741 51.432C18.6695 51.4647 18.7708 51.4767 18.8712 51.4673C18.8786 51.3852 18.9885 51.3668 19.0705 51.371C19.1102 51.3697 19.1495 51.3788 19.1846 51.3973C19.2052 51.4105 19.2209 51.4299 19.2414 51.4431C19.277 51.4628 19.317 51.4732 19.3577 51.4731L19.7842 51.5088C19.9751 51.5251 20.1728 51.5404 20.3517 51.472C20.3871 51.4609 20.4186 51.4397 20.4421 51.411C20.4905 51.3416 20.4421 51.2427 20.3753 51.1922C20.3085 51.1417 20.2223 51.1186 20.1555 51.067C20.0067 50.954 19.9867 50.7431 19.9078 50.5737C19.8526 50.4666 19.784 50.367 19.7037 50.2771C19.6454 50.2001 19.5776 50.1308 19.5018 50.071C19.3309 49.9468 19.1336 49.9495 18.9327 49.9316C18.7902 49.919 18.6566 49.9111 18.5551 50.0368C18.4289 50.1945 18.4794 50.5101 18.4868 50.6947C18.4966 50.9424 18.5258 51.1889 18.5741 51.432Z" fill="#514E7F"/>
<path d="M22.9796 39.7709C23.5234 39.7709 23.9642 39.3301 23.9642 38.7864C23.9642 38.2427 23.5234 37.8019 22.9796 37.8019C22.4359 37.8019 21.9951 38.2427 21.9951 38.7864C21.9951 39.3301 22.4359 39.7709 22.9796 39.7709Z" fill="#A1616A"/>
<path d="M22.0509 39.0788C21.9099 39.2003 21.7074 39.2092 21.5223 39.2282C21.1265 39.2688 20.7411 39.3804 20.3848 39.5574C20.3354 39.5787 20.2908 39.6094 20.2533 39.6479C20.2213 39.6896 20.1985 39.7376 20.1865 39.7888C20.1526 39.8996 20.14 40.0157 20.1491 40.1312C20.162 40.2432 20.1943 40.3521 20.2443 40.453C20.381 40.7359 20.5918 40.9764 20.8544 41.1488C20.9007 41.1833 20.9532 41.2085 21.009 41.223C21.1384 41.2498 21.2636 41.1751 21.3914 41.1415C21.5076 41.1111 21.6301 41.115 21.7443 41.1525C21.8494 41.1883 21.9646 41.2535 22.0687 41.2098C22.1354 41.1726 22.1872 41.1135 22.2155 41.0426C22.3161 40.8525 22.4058 40.6569 22.4842 40.4567C22.5124 40.3786 22.5449 40.302 22.5815 40.2274C22.6956 40.0102 22.8929 39.8425 22.9912 39.6168C23.0012 39.5996 23.0072 39.5804 23.0089 39.5606C23.0105 39.5407 23.0077 39.5208 23.0007 39.5022C22.9824 39.477 22.9572 39.4578 22.9281 39.447C22.7827 39.3637 22.6501 39.2597 22.5347 39.1382C22.47 39.0762 22.3512 38.9084 22.2581 38.8937C22.1534 38.8758 22.1219 39.0178 22.0509 39.0788Z" fill="#A1616A"/>
<path d="M22.074 41.0794C21.9599 41.1319 21.8252 41.1093 21.7016 41.0836C21.3829 41.0168 21.0605 40.9495 20.7655 40.8117C20.6733 40.7764 20.5935 40.715 20.5357 40.635C20.4998 40.5665 20.478 40.4916 20.4715 40.4146L20.4189 40.0465C20.4 39.9187 20.4326 39.8003 20.4358 39.671C20.4378 39.6566 20.4369 39.642 20.4332 39.628C20.4295 39.614 20.423 39.6009 20.4142 39.5894C20.3962 39.5743 20.3729 39.5669 20.3495 39.5689C20.2017 39.5716 20.1123 39.7267 20.0087 39.8319C19.9488 39.8926 19.8773 39.9405 19.7983 39.9728C19.7037 40.0117 19.588 40.0391 19.5485 40.1338C19.5328 40.1732 19.5349 40.2179 19.518 40.2573C19.4518 40.4151 19.1693 40.3625 19.0973 40.5203C19.0768 40.5645 19.0784 40.6197 19.0447 40.6544C19.011 40.6891 18.9479 40.6886 18.8959 40.697C18.6902 40.7307 18.5908 40.9679 18.4152 41.0799C18.2674 41.1745 18.077 41.1724 17.9177 41.2461C17.8293 41.2871 17.7509 41.3513 17.6573 41.3781C17.5637 41.4049 17.458 41.3907 17.3576 41.3933C17.3468 41.3923 17.336 41.3935 17.3258 41.3969C17.3156 41.4002 17.3062 41.4056 17.2981 41.4128C17.2919 41.4223 17.2878 41.4331 17.286 41.4443C17.2843 41.4556 17.285 41.467 17.2881 41.478C17.3368 41.789 17.4657 42.0819 17.662 42.3279C17.8584 42.574 18.1154 42.7646 18.4078 42.8811C18.4418 42.8919 18.474 42.9075 18.5035 42.9274C18.5929 42.9942 18.6087 43.1378 18.7102 43.1851C18.7469 43.198 18.7863 43.2005 18.8243 43.1924C18.8623 43.1842 18.8972 43.1657 18.9253 43.1388C18.9813 43.0849 19.034 43.0277 19.0831 42.9674C19.1758 42.8706 19.2974 42.8065 19.4297 42.7849C19.5517 42.7654 19.6879 42.7796 19.7868 42.7044C19.8272 42.6673 19.8648 42.6272 19.8993 42.5845C19.9726 42.5162 20.0595 42.4642 20.1544 42.432C20.4136 42.3296 20.6876 42.2694 20.9659 42.2537C21.2252 42.2395 21.4918 42.2632 21.7369 42.179C21.8005 42.1593 21.8592 42.1261 21.9088 42.0818C21.9615 42.0248 22.0007 41.9566 22.0235 41.8824C22.1119 41.6241 22.1293 41.3467 22.074 41.0794Z" fill="#E4AF00"/>
<path d="M20.805 39.6284C20.8775 39.6215 20.9506 39.6284 21.0237 39.6284C21.1095 39.6284 21.1941 39.6073 21.2799 39.6068C21.4156 39.609 21.5471 39.6546 21.6552 39.7368C21.7632 39.819 21.8421 39.9336 21.8805 40.0638C21.8877 40.0846 21.889 40.107 21.8841 40.1285C21.8813 40.1391 21.8748 40.1484 21.8657 40.1545C21.8566 40.1607 21.8456 40.1634 21.8347 40.1622C21.8062 40.0844 21.769 40.0101 21.7237 39.9408C21.6422 39.8295 21.526 39.7485 21.3935 39.7104C21.2613 39.673 21.122 39.6679 20.9875 39.6957C20.9312 39.7062 20.8765 39.7209 20.8218 39.7362L20.5588 39.8088C20.5104 39.8219 20.4615 39.8351 20.4147 39.8524C20.3784 39.8661 20.3164 39.916 20.2806 39.9182C20.2322 39.9182 20.2712 39.8761 20.2927 39.8477C20.3357 39.7891 20.3958 39.7454 20.4647 39.7225C20.574 39.6778 20.6882 39.6462 20.805 39.6284Z" fill="#E4AF00"/>
<path d="M21.4687 42.5856C21.5323 42.7896 21.596 42.9942 21.6759 43.1925C21.8188 43.5373 21.9988 43.8654 22.2129 44.1712C22.3507 44.3726 22.4989 44.5667 22.6567 44.7529C22.8539 44.9858 23.0743 45.2204 23.1448 45.5175C23.1853 45.69 23.1716 45.8694 23.1884 46.0435C23.2053 46.2175 23.2626 46.4053 23.4046 46.5105C23.5066 46.5852 23.6365 46.6078 23.7612 46.6278C23.85 46.642 23.9615 46.6467 24.0083 46.5694C24.0242 46.5377 24.0327 46.5028 24.033 46.4674L24.0541 46.2102C24.0588 46.1544 24.0788 46.0834 24.134 46.0808C24.1892 46.0782 24.2182 46.1523 24.2655 46.186C24.3286 46.2302 24.4233 46.186 24.458 46.1192C24.4866 46.0468 24.4884 45.9667 24.4633 45.8931C24.4248 45.7467 24.3558 45.6102 24.2609 45.4924C24.1661 45.3746 24.0474 45.2781 23.9126 45.2094C23.8188 45.1715 23.7289 45.1248 23.6439 45.07C23.5576 44.9951 23.4863 44.9046 23.4335 44.8034C22.9449 44.0003 22.4542 43.1925 22.1103 42.3173C22.0425 42.1612 21.9964 41.9964 21.9736 41.8277C21.9573 41.6557 21.9836 41.4827 21.9951 41.3102C22.0155 41.0003 21.9868 40.6892 21.9099 40.3883C21.8932 40.3092 21.8633 40.2335 21.8216 40.1642C21.6801 39.9486 21.3482 39.9171 21.1379 40.0654C21.0603 40.1249 20.996 40.2 20.9491 40.2857C20.9021 40.3714 20.8734 40.466 20.8649 40.5634C20.8497 40.738 20.9506 40.9189 21.0011 41.0814C21.1565 41.5835 21.3123 42.0849 21.4687 42.5856Z" fill="#A1616A"/>
<path d="M24.4117 38.09C24.4196 38.008 24.346 37.9322 24.2623 37.8796C24.1743 37.8345 24.0897 37.7828 24.0094 37.725C23.9347 37.6603 23.8937 37.5762 23.819 37.5115C23.7341 37.4469 23.6377 37.3989 23.535 37.37C23.3165 37.2934 23.0871 37.2524 22.8555 37.2485C22.6215 37.2485 22.3822 37.3011 22.206 37.4205C22.1625 37.4478 22.125 37.4836 22.0956 37.5257C22.0678 37.5762 22.0499 37.6315 22.043 37.6887C22.001 37.8652 21.9442 38.0378 21.8731 38.2047C21.8 38.3903 21.7222 38.5828 21.5502 38.7264C21.3661 38.8794 21.0848 38.9678 20.9633 39.1529C20.9498 39.1693 20.9404 39.1887 20.9358 39.2094C20.9311 39.2301 20.9313 39.2516 20.9364 39.2723C20.9538 39.3191 21.0096 39.3512 21.0611 39.3806C21.3598 39.5521 21.6175 39.7745 21.75 40.0401C21.8826 40.3057 21.8789 40.6186 21.6901 40.8632C21.6207 40.9536 21.5249 41.0609 21.5928 41.1519C21.698 41.2902 22.0498 41.2108 22.1319 41.357C22.1576 41.4038 22.1424 41.4569 22.1424 41.5079C22.1424 41.6615 22.2902 41.7977 22.4695 41.8687C22.6488 41.9397 22.8566 41.9565 23.0585 41.9655C23.1121 41.845 23.1174 41.7085 23.0732 41.5842C23.0598 41.5574 23.0545 41.5272 23.058 41.4974C23.0731 41.4643 23.0964 41.4357 23.1258 41.4143C23.3415 41.2103 23.2957 40.9105 23.1663 40.6681C23.037 40.4256 22.835 40.2042 22.7598 39.9491C22.7225 39.8224 22.7225 39.6798 22.8229 39.5747C22.8806 39.5241 22.9427 39.4788 23.0086 39.4395C23.1262 39.3597 23.2168 39.2459 23.2684 39.1134C23.3288 38.9457 23.321 38.7453 23.4966 38.6322C23.6654 38.527 23.9026 38.5575 24.0893 38.4855C24.2329 38.4287 24.4001 38.2104 24.4117 38.09Z" fill="#464353"/>
<path d="M34.6092 46.3307C33.8072 45.9988 33.5716 45.759 33.5716 45.2788C33.5716 44.9107 33.7336 44.4857 34.4436 44.4857C34.836 44.48 35.2216 44.5897 35.5522 44.8013L35.7831 44.1907C35.5154 44.0329 35.1378 43.8862 34.5845 43.8678V42.9737H34.118V43.9046C33.2697 44.0429 32.7785 44.6235 32.7785 45.3887C32.7785 46.1908 33.2518 46.6152 34.1943 46.9838C34.8769 47.2621 35.234 47.5755 35.234 48.0825C35.234 48.6084 34.7917 48.986 34.137 48.986C33.621 48.986 33.0362 48.8109 32.7044 48.5895L32.4829 49.2069C32.8059 49.4378 33.3591 49.6034 33.8935 49.6129V50.5438H34.6871V49.585C35.6337 49.4273 36.1433 48.7436 36.1433 48.0178C36.1433 47.1974 35.559 46.7177 34.6092 46.3307Z" fill="url(#paint1_linear_1004_3096)"/>
<path d="M33.8956 50.3334V49.4025C33.3612 49.393 32.808 49.2274 32.485 48.9965L32.7065 48.3791C33.0383 48.6005 33.6231 48.7756 34.1391 48.7756C34.7938 48.7756 35.234 48.398 35.234 47.8721C35.234 47.3651 34.8748 47.0516 34.1922 46.775C33.2518 46.4069 32.7764 45.9819 32.7764 45.1799C32.7764 44.4147 33.2676 43.8341 34.1159 43.6958V42.7649H34.5824V43.659C35.1357 43.6774 35.5133 43.8246 35.781 43.9819L35.5501 44.5898C35.2195 44.3782 34.8339 44.2685 34.4415 44.2743C33.7315 44.2743 33.5695 44.6987 33.5695 45.0674C33.5695 45.5465 33.8051 45.7863 34.6071 46.1192C35.5569 46.5063 36.1412 46.9859 36.1412 47.8063C36.1412 48.5347 35.6342 49.2168 34.685 49.3736V50.3334H33.8956Z" fill="#E4AF00"/>
<path d="M33.8956 32.3334V31.4025C33.3612 31.393 32.808 31.2274 32.485 30.9965L32.7065 30.3791C33.0383 30.6005 33.6231 30.7756 34.1391 30.7756C34.7938 30.7756 35.234 30.398 35.234 29.8721C35.234 29.3651 34.8748 29.0516 34.1922 28.775C33.2518 28.4069 32.7764 27.9819 32.7764 27.1799C32.7764 26.4147 33.2676 25.8341 34.1159 25.6958V24.7649H34.5824V25.659C35.1357 25.6774 35.5133 25.8246 35.781 25.9819L35.5501 26.5898C35.2195 26.3782 34.8339 26.2685 34.4415 26.2743C33.7315 26.2743 33.5695 26.6987 33.5695 27.0674C33.5695 27.5465 33.8051 27.7863 34.6071 28.1192C35.5569 28.5063 36.1412 28.9859 36.1412 29.8063C36.1412 30.5347 35.6342 31.2168 34.685 31.3736V32.3334H33.8956Z" fill="#E4AF00"/>
<defs>
<linearGradient id="paint0_linear_1004_3096" x1="20.0823" y1="36.3798" x2="20.0823" y2="26.34" gradientUnits="userSpaceOnUse">
<stop stop-color="#808080" stop-opacity="0.25"/>
<stop offset="0.54" stop-color="#808080" stop-opacity="0.12"/>
<stop offset="1" stop-color="#808080" stop-opacity="0.1"/>
</linearGradient>
<linearGradient id="paint1_linear_1004_3096" x1="32.485" y1="46.7593" x2="36.1433" y2="46.7593" gradientUnits="userSpaceOnUse">
<stop stop-color="#808080" stop-opacity="0.25"/>
<stop offset="0.54" stop-color="#808080" stop-opacity="0.12"/>
<stop offset="1" stop-color="#808080" stop-opacity="0.1"/>
</linearGradient>
</defs>
</svg>
